<svg id="Capa_1" enable-background="new 0 0 512 512" height="512" viewBox="0 0 512 512" width="512" xmlns="http://www.w3.org/2000/svg"><g><path d="m434.63 407.34h-303.978c8.466 26.966 33.69 46.583 63.413 46.583h251.485c36.641 0 66.449-29.809 66.449-66.449s-29.809-66.449-66.449-66.449h-10.92z"/><path d="m107.374 144.48 56.711-47.96-45.458-38.444-118.627 100.323v102.697h.003v-.371l107.371-90.804z"/><path d="m217.317 193.119 27.43-23.198v-25.441l56.711-47.96-45.458-38.444-99.182 83.879z"/><path d="m294.191 141.955 84.183 71.194v-43.988h30v69.359l26.256 22.205v.371h77.37v-102.697l-118.626-100.323z"/><path d="m148.63 174.321-118.627 100.323v102.696h107.374v-116.615l56.711-47.961z"/><path d="m167.377 274.644v102.696h103.627v-91.935h30v91.935h103.626v-102.696l-118.627-100.323z"/></g></svg>
