<svg xmlns="http://www.w3.org/2000/svg" viewBox="0 0 488.96 489.99"><defs><style>.cls-1{fill:#00745b;}.cls-2{fill:#009274;}.cls-3{fill:#fff;}.cls-4{fill:#323232;}.cls-5{fill:#f7f6f6;}.cls-6{fill:#f6f6f6;}.cls-7{fill:#f6f5f5;}.cls-8{fill:#fbb040;}.cls-9{fill:#ec008c;}.cls-10{fill:#f15a29;}.cls-11{fill:#8dc63f;}</style></defs><g id="Layer_2" data-name="Layer 2"><g id="Layer_1-2" data-name="Layer 1"><rect class="cls-1" x="12.85" y="13.88" width="476.11" height="476.11" rx="119.69"/><rect class="cls-2" width="476.11" height="476.11" rx="119.69"/><path class="cls-3" d="M270.48,242.52q0,13.42,0,26.85c0,4.48-2.33,7.14-6.17,7.16s-6.21-2.75-6.22-7.19q0-26.83,0-53.68c0-4.43,2.48-7.17,6.23-7.17s6.14,2.74,6.14,7.19Q270.5,229.11,270.48,242.52Z"/><path class="cls-3" d="M227,251.17c0,6.15,0,12.3,0,18.46,0,4.25-2.37,6.87-6.08,6.89s-6.17-2.55-6.18-6.81q-.06-18.9,0-37.81c0-4.22,2.49-6.79,6.23-6.75s6,2.71,6,7C227,238.47,227,244.82,227,251.17Z"/><path class="cls-3" d="M192.87,257.47c0-4.08,0-8.15,0-12.23s2.73-6.93,6.28-6.84,6.08,2.85,6.11,6.74q.09,12.39,0,24.77c0,3.93-2.61,6.61-6.17,6.62s-6.2-2.69-6.24-6.82S192.87,261.55,192.87,257.47Z"/><path class="cls-3" d="M236.38,257.41c0-4.07,0-8.15,0-12.23,0-3.89,2.54-6.66,6-6.78a6.25,6.25,0,0,1,6.34,6.5q.15,12.53,0,25.06c0,4-2.64,6.57-6.22,6.56s-6.14-2.71-6.17-6.87S236.38,261.49,236.38,257.41Z"/><path class="cls-4" d="M242.71,229.25a4.84,4.84,0,0,1-5-4.55A3,3,0,0,0,236,222c-2.32-1.33-4.56-2.8-6.85-4.19-2.45-1.49-4.72-3.78-8-2-7.26-2-10.89,4.71-16.43,6.81-1,.38-.57,1.34-.7,2.07-.56,3.15-3.18,5.09-5.94,4.42a4.91,4.91,0,0,1-3.67-6.15,4.67,4.67,0,0,1,6.61-3.07,3,3,0,0,0,3.2-.46c2.6-1.64,5.2-3.27,7.85-4.83,2.09-1.25,4.07-2.19,4.33-5.3.19-2.32,2.54-3.47,5-3.17a4.4,4.4,0,0,1,4.22,4.27,3.2,3.2,0,0,0,1.92,2.94c2.68,1.51,5.63,2.8,7.79,4.88,2.74,2.64,5.63,1.23,8.48,1.26.47,0,1-.84,1.43-1.39,4.62-6.33,9.21-12.69,13.84-19a3.37,3.37,0,0,0,.66-3.45,4.74,4.74,0,0,1,3.91-6.19,5.05,5.05,0,0,1,5.56,4.25,4.72,4.72,0,0,1-4.88,5.43,2.87,2.87,0,0,0-2.65,1.36q-7,9.67-14,19.29a3.19,3.19,0,0,0-.5,3.19A4.79,4.79,0,0,1,242.71,229.25Z"/><path class="cls-5" d="M202.38,224.39c-.32,1.86-1.3,3.15-3.28,3.16a3.23,3.23,0,1,1,.1-6.46C201.17,221.14,202.12,222.47,202.38,224.39Z"/><path class="cls-6" d="M267.56,194.44c-.23,1.95-1.33,3.17-3.26,3.14a3,3,0,0,1-3.2-3.47,3,3,0,0,1,3.38-3C266.49,191.26,267.42,192.49,267.56,194.44Z"/><path class="cls-5" d="M224,210.64c0,2.18-1.08,3.46-3,3.58A3,3,0,0,1,217.6,211a3.22,3.22,0,0,1,6.42-.37Z"/><path class="cls-7" d="M242.57,221c2,.28,3.27,1.38,3.24,3.28a3,3,0,0,1-3.44,3.24,3,3,0,0,1-3-3.35C239.43,222.16,240.74,221.26,242.57,221Z"/><path class="cls-8" d="M236,99.6A138.12,138.12,0,0,0,132.74,146l4.31,4.18a132.17,132.17,0,0,1,99-44.54c73,0,132.45,59.42,132.45,132.45a132.45,132.45,0,0,1-257.3,44.23l-5.54,2.33A138.69,138.69,0,0,0,236,376.5c76.34,0,138.45-62.1,138.45-138.45S312.36,99.6,236,99.6Z"/><path class="cls-9" d="M325.34,269.46A94.73,94.73,0,1,1,299.64,168l2.72-2.92A98.64,98.64,0,1,0,329.1,270.82Z"/><path class="cls-10" d="M236,160.08a78,78,0,0,0-43.27,142.81l2.94-5.25a72,72,0,1,1,89.3-6.9l3.69,4.77A77.94,77.94,0,0,0,236,160.08Z"/><path class="cls-11" d="M293.58,131.34,288.64,140a111.29,111.29,0,1,1-108.77,2l-5.67-8.26a121.25,121.25,0,1,0,119.38-2.43Z"/></g></g></svg>