<svg xmlns="http://www.w3.org/2000/svg" viewBox="0 0 488.96 489.99"><defs><style>.cls-1{fill:#39967f;}.cls-2{fill:#4cbea0;}.cls-3{fill:#be1e2d;}.cls-4{fill:#323232;}.cls-5{fill:#f7f6f6;}.cls-6{fill:#f6f6f6;}.cls-7{fill:#f6f5f5;}</style></defs><g id="Layer_2" data-name="Layer 2"><g id="Layer_1-2" data-name="Layer 1"><rect class="cls-1" x="12.85" y="13.88" width="476.11" height="476.11" rx="119.69"/><rect class="cls-2" width="476.11" height="476.11" rx="119.69"/><path class="cls-3" d="M263.61,369.62c-8.06-2.91-12.44-9.32-12.85-19.14-.93-21.84-1.78-43.69-2.67-65.54a31.47,31.47,0,0,0-.23-3.23c-.23-1.52.13-3.74-2.16-3.69-2.54.06-2.11,2.4-2.18,4.05-.33,7-.5,14-.82,21-.77,16.72-1.39,33.44-2.45,50.14a19.72,19.72,0,0,1-19.79,18.28c-1.78,0-2.49-.58-2.47-2.29s0-3.24,0-4.86q0-73.35,0-146.7c0-2,.5-4-.91-6.56a34.1,34.1,0,0,0-2.78,11.09c-1.6,16-1,32.11-1.14,48.17,0,1.76.12,3.53,0,5.27-.18,2.05,1.13,5-1,5.94s-4.69-.54-6.81-1.78a13.68,13.68,0,0,1-7-10.84c-1.61-18.44-2.58-36.91.47-55.31a57.13,57.13,0,0,1,5.17-16.54c3.66-7.26,9.13-12.2,17.26-14a115.25,115.25,0,0,1,47-.59c12.34,2.3,18.71,10.44,22.23,21.56,4.56,14.39,4.49,29.27,4.2,44.13-.12,6.07-.52,12.14-.92,18.2-.52,7.88-4.68,13.11-11.34,15.06-3.25.95-4-.07-4-3.17,0-14.18-.07-28.36-.34-42.54a105.33,105.33,0,0,0-2.1-20.1c-.39-1.79-.37-3.79-2.38-4.78-.9,1.36-.43,2.89-.43,4.33q0,74.52,0,149c0,7-.45,7.38-7.4,5.69C265,369.76,264.25,369.83,263.61,369.62Z"/><path class="cls-3" d="M194.05,276c2.59,2.87,3.18,6.25,3.15,10.06q-.19,32,0,64c0,3.72-1,4.67-4.65,4.11-8.18-1.24-13.66-7.45-14.1-16.71q-1.38-29.33-2.65-58.66c-.09-2-.18-4-.35-6.06-.12-1.4.33-3.43-1.73-3.53s-1.83,1.92-1.9,3.32q-.74,14.76-1.42,29.53c-.54,11.73-1,23.47-1.61,35.19-.51,9.31-7.28,16.55-15.45,17-2.26.13-3.32-.53-3.17-2.87.07-1.21,0-2.43,0-3.65q0-65.85,0-131.71v-6.4c-3.35,3.14-4.33,7.3-5.71,11.2-4,11.19-7.21,22.8-13.09,33-4,7.06-3.27,13.78-2.8,20.84,1.43,21.95,3.09,43.89,4.67,65.83.25,3.5.45,7,.85,10.49s-1.63,4.22-4.33,4.48-4.36-.68-4.64-3.67c-1.07-11.69-2.24-23.38-3.38-35.06q-2.42-24.78-4.81-49.57c-.15-1.56-.46-2.54-2.31-2.51-2.4,0-3-1.19-2.24-3.42,7.66-21.6,14.72-43.43,24-64.43,2.45-5.55,5.87-10.3,11.92-12.49,11.61-3.64,23.59-4.09,35.56-3.37a59.57,59.57,0,0,1,16.59,2.87c2,.73,2.86,1.57,1.51,3.43-8,11-9.76,23.7-11,36.82-1.41,14.71-.08,29.29.64,43.92A13.5,13.5,0,0,0,194.05,276Z"/><path class="cls-3" d="M341.16,211.36c-4.61,13.52-4.56,26.77,1.48,40.27,5.62,12.58,6.62,26.32,7.13,40,.1,2.64-.74,3.08-3.29,2.72-9.49-1.34-9.44-1.24-9.54,8.25-.15,15.93-.39,31.86-.6,47.8,0,4.09-.74,4.55-4.52,2.93-6.38-2.75-10.24-7.45-10.56-14.52-.62-13.35-1-26.7-1.66-40.05-.08-1.62,1.24-4.46-1.42-4.69-3.15-.26-2.17,2.87-2.25,4.6-.55,12.81-1,25.63-1.36,38.44-.25,7.81-3.79,13.31-11.05,16.37-2.81,1.18-4.2.82-4.23-2.68-.16-17-.59-34-.63-51,0-3.68-1.06-5.18-4.72-4.91a9.74,9.74,0,0,1-3.6-.44c-1.58-.51-4.23.49-4.2-2.56,0-2.56-.76-5.17,2.56-6.9a19.13,19.13,0,0,0,10.41-16c1.83-21.27,3.11-42.57-2.19-63.6a44.63,44.63,0,0,0-5.72-13.74c-1.35-2.06-1-3.31.88-4.71a26.76,26.76,0,0,1,8.66-4.28,61.51,61.51,0,0,1,34.34,0c10.29,3,15.6,10.56,18.58,20.21,3.16,10.2,3.33,21,6.51,31.25a87.42,87.42,0,0,1,3.74,17.38c.56,5.66-.76,10.77-5.7,14.3-2.34,1.67-4.15,2-5.24-1.61a306.66,306.66,0,0,1-10.62-47.71A17,17,0,0,0,341.16,211.36Z"/><path class="cls-3" d="M226.43,151.26c.29-7.68,1.75-14.91,9-19.24,12.7-7.59,27.59-.05,29.24,14.6a30.43,30.43,0,0,1-.75,12.43c-2.85,9.34-11,14.33-21,13.1s-15.73-7.83-16.43-18.87C226.39,152.61,226.43,151.93,226.43,151.26Z"/><path class="cls-3" d="M192.92,152.2c0,15.48-11.26,24-24.63,18.63-6.95-2.81-9.35-8.68-9.55-15.53-.1-3.3-1-5-4.38-5.24-1.72-.14-3.67-.67-4.09-2.72s1.21-3.24,2.66-4.16A59.38,59.38,0,0,1,183,133.72c4.22-.15,7,2.33,8.34,6.9A36.85,36.85,0,0,1,192.92,152.2Z"/><path class="cls-3" d="M332.78,153.13c0,15-11.25,23.18-24.42,17.64-9.05-3.8-12.81-17.31-7.83-28.19,3.79-8.3,14.91-11.7,23.59-6.93C330.94,139.39,332.8,145.86,332.78,153.13Z"/><path class="cls-3" d="M294.61,117c0,12.41-7.91,19.11-19.55,16.49a12.48,12.48,0,0,1-2.65-.94c-7.51-3.69-10.33-15.93-5.8-25.1,3.51-7.12,12.45-9.87,20.21-6.21C291.85,103.59,294.6,109.15,294.61,117Z"/><path class="cls-3" d="M211.7,134c-9.43,0-15.06-6.2-15.1-16.66,0-10.69,6-17.72,15.23-17.69s15.08,6.67,15.14,17.29S221.16,134,211.7,134Z"/><path class="cls-3" d="M194.05,276c-2.81-2.24-3.08-5.66-3.19-8.67-.48-12.78-1.78-25.56-.94-38.36.78-11.8,2-23.53,7.05-34.5a52,52,0,0,1,3.94-6.56c1.23-1.88,1.52-2.87-1.2-3.61a91.28,91.28,0,0,0-34.34-2.53c-5.72.64-11.38,1.74-17.07,2.63,4.45-2.61,9.49-3,14.4-3.45,12.42-1.17,24.83-1.15,37,2,5,1.32,4.95,1.46,1.89,5.76-6.49,9.11-8.65,19.73-9.81,30.48-1.74,16.3-1,32.64.48,48.92A60.58,60.58,0,0,0,194.05,276Z"/><path class="cls-3" d="M263.61,369.62a8.64,8.64,0,0,1,1.6-.09c7.33.84,7.33.85,7.33-6.73q0-73.21,0-146.43c0-1.86.15-3.73.25-5.59,0-.06.22-.16.33-.15s.22.14.33.23q0,33.18.08,66.36,0,44.52,0,89c0,5.94,0,6-5.8,4.81A29.73,29.73,0,0,1,263.61,369.62Z"/><path class="cls-4" d="M267.58,279.13a11.92,11.92,0,0,1-12.22-11.2c-.27-3.51-1.66-5.09-4.4-6.66-5.71-3.26-11.21-6.87-16.83-10.29-6-3.66-11.59-9.29-19.63-4.85-17.82-5-26.74,11.57-40.37,16.74-2.5.95-1.39,3.29-1.71,5.09-1.39,7.75-7.81,12.5-14.6,10.86a12,12,0,0,1-9-15.1c2.18-7.13,8.9-10.67,16.22-7.57,3.42,1.45,5.38.43,7.87-1.13,6.4-4,12.79-8,19.29-11.87,5.16-3.05,10-5.36,10.65-13,.46-5.69,6.25-8.53,12.32-7.78s10,4.44,10.37,10.48c.22,3.77,1.71,5.53,4.72,7.23,6.58,3.72,13.83,6.89,19.14,12,6.74,6.48,13.84,3,20.83,3.1,1.17,0,2.55-2.08,3.52-3.42,11.37-15.56,22.64-31.19,34-46.75,1.94-2.65,2.79-4.81,1.63-8.48A11.64,11.64,0,0,1,319,181.29c6.33-.94,12.76,4,13.66,10.46,1,7.16-4.13,13.29-12,13.34a7,7,0,0,0-6.51,3.36q-17.1,23.76-34.37,47.4c-1.88,2.56-2.18,4.6-1.23,7.82A11.81,11.81,0,0,1,267.58,279.13Z"/><path class="cls-5" d="M168.46,267.16c-.77,4.58-3.19,7.76-8.06,7.78s-7.84-3-8-7.72c-.12-5.16,3-8.27,8.19-8.14C165.49,259.19,167.82,262.46,168.46,267.16Z"/><path class="cls-6" d="M328.64,193.57c-.56,4.8-3.26,7.8-8,7.72-5.17-.08-8.21-3.53-7.86-8.54.31-4.55,3.26-7.6,8.3-7.3S328.31,188.79,328.64,193.57Z"/><path class="cls-5" d="M221.65,233.37c0,5.37-2.66,8.51-7.31,8.82-5.08.33-8.45-2.84-8.48-7.9,0-4.58,2.73-7.78,7.69-7.9S221.05,229.07,221.65,233.37Z"/><path class="cls-7" d="M267.24,258.86c4.86.68,8,3.39,8,8.07-.07,5-3.25,8.27-8.46,8-4.75-.29-7.5-3.39-7.37-8.24S262.73,259.48,267.24,258.86Z"/></g></g></svg>