<svg xmlns="http://www.w3.org/2000/svg" xmlns:xlink="http://www.w3.org/1999/xlink" viewBox="0 0 488.96 489.99"><defs><style>.cls-1{fill:none;}.cls-2{fill:#2c90b1;}.cls-3{fill:#3ec7f4;}.cls-4{fill:#fed832;}.cls-5{clip-path:url(#clip-path);}.cls-6{fill:#d2a277;}.cls-7{fill:#f05d90;}.cls-8{fill:#fcebd7;}.cls-9{fill:#dedbad;}.cls-10{fill:#3e2b23;}.cls-11{fill:#634034;}.cls-12{fill:#f1605d;}.cls-13{fill:#f3797f;}.cls-14{fill:#f9bebf;}.cls-15{fill:#fcc18d;}.cls-16{fill:#321c19;}.cls-17{fill:#c88383;}.cls-18{fill:#c68080;}.cls-19{fill:#fdf38d;}.cls-20{fill:#d8d274;}.cls-21{fill:#cdc1b2;}.cls-22{fill:#5d489d;}.cls-23{fill:#538885;}.cls-24{fill:#331f5c;}.cls-25{fill:#bf4973;}</style><clipPath id="clip-path"><circle class="cls-1" cx="238.05" cy="236.43" r="152.97"/></clipPath></defs><g id="Layer_2" data-name="Layer 2"><g id="Layer_1-2" data-name="Layer 1"><rect class="cls-2" x="12.85" y="13.88" width="476.11" height="476.11" rx="119.69"/><rect class="cls-3" width="476.11" height="476.11" rx="119.69"/><circle class="cls-4" cx="238.05" cy="236.43" r="152.97"/><g class="cls-5"><line class="cls-6" x1="333.06" y1="281.45" x2="331.1" y2="330.93"/><path class="cls-7" d="M175,272.85S135,258.53,122.2,272c0,0-14,13.4.19,32.5,0,0,14.67,22.06,15.58,42.05,0,0-1.82,54,53.71,50.71L343,391.85s28.22-8.5,25-32.66c0,0,1.82-31.76-10-38.47l-29.59-40.26-61,40.26Z"/><path class="cls-8" d="M198.74,104s11.84,20.29,27.62,22.37c0,0,13.51,3,9.11,12.82,0,0,3.94,3,5.31-6.4,0,0,.2-7.21,7.33-7.86,0,0,5.16,0,5.82,7.8,0,0-.45,6.62-4.2,10.1,0,0-.81,30.22,12.75,38.67,0,0,11.63,7,15,7.66,0,0-14.36,29.53-44.72,25.05,0,0-29.74-2.68-30.55-34.89,0,0,5.36-1.49,10.37-3.29,0,0-6.67,0-9.1-4.47,0,0-10.93-13-12.14-18.64a44,44,0,0,1-.25-14.67S182.51,116.23,198.74,104Z"/><path class="cls-9" d="M211.19,175.89s11.23,1.19,28.07-20.29l-2.58,6.26S234.71,187.67,211.19,175.89Z"/><path class="cls-9" d="M202.69,186a58.79,58.79,0,0,0,23.52,2.83s4.25.45,4.85,6.56c0,0-2-4.77-5.76-5.22C225.3,190.2,209.82,191.25,202.69,186Z"/><path class="cls-9" d="M235.92,195.72s1.67-4.33,7.44-4.33l30.19,4.48s-20.63-.3-29.89-3.43A8.37,8.37,0,0,0,235.92,195.72Z"/><path class="cls-10" d="M242.6,132.56s1.36-2.69,5.92-3.43C248.52,129.13,244.5,132,242.6,132.56Z"/><path class="cls-10" d="M245.23,133.63s3.18,1.74,3.9,3.13c0,0,2.07-3.38-2.13-6.11l.61-.35a5.16,5.16,0,0,1,2.83,4.72s-.36,3.63-5.82,5.37v-.45a12.1,12.1,0,0,0,3.75-2.63,12,12,0,0,0-3.9-3.33S244.42,133.63,245.23,133.63Z"/><path class="cls-11" d="M188.36,127.79s6.17-2.66,10.16-1.71l.38,2.23s-8.62-.25-10.09,1.2Z"/><path class="cls-11" d="M209.26,125.53s2.38-2.49,12.34-1.3a21.25,21.25,0,0,1,3.8,1.54s-9.6.12-14.81,1.72Z"/><path class="cls-11" d="M204.14,136.51s-.09,8.76-2.66,11.77c0,0-.76,2,5.16,4.05,0,0-3.49-3.06-3.68-4.23C203,148.1,206.15,141.69,204.14,136.51Z"/><path class="cls-12" d="M197.53,157.2s6.47.8,7.13.65c0,0,1.63.89,2.57-.27l7.6-.93L212.06,159s-7.44,1.58-10.89.59Z"/><path class="cls-13" d="M202.12,160.34s-.31,2.12,4.16,1.62c0,0,3.46.33,5.2-2.33A22.76,22.76,0,0,1,202.12,160.34Z"/><path class="cls-14" d="M202.18,179.32s.66,31.31,31.77,34.89c0,0,25,4.63,43.5-25.05,0,0,19.17,5.07,24.18,6.71,0,0,9.2,1.54,13.65,17,0,0,11.54,41,13.36,56.47,0,0-13.36-10.14-40.46,2.59,0,0-20.85,9.94-33.79,1.79l-10.12-2-24.08-4.57L207.85,271l-32-5.18L156.56,270s-11.53-4.13-23.67-2.78l40.67-81.92s4.24-6.57,15.47-4.93Z"/><path class="cls-15" d="M164,243.6s5.62-5.37,16-5.13a23,23,0,0,1,10.67,1.84,38.12,38.12,0,0,1,6.75,5.15s4.94,5.07,9.72,7.08c0,0,6.14,2.63,6.45,8.1a21,21,0,0,1-.46,5.37l-.1.95a77,77,0,0,0-9.66,12.38s-4.76,8.84-12.44,10.24c0,0-3.24.6-5.07-.2L183,285.9s-11.38,1.39-22-7.71c0,0-9.16-9.69-4.7-21.52A37,37,0,0,1,164,243.6Z"/><path class="cls-6" d="M163.44,279.44s12.34,7.45,24.17,3.67c0,0,4.25-1.88,7.39,4.37,0,0-4.35,2.5-8.4,1.6L183.11,286S174.47,287.29,163.44,279.44Z"/><path class="cls-16" d="M193.54,255s-3.95-.35-3.65,3.63c0,0,.56,4.77,6.68,4.67a9.92,9.92,0,0,0,6.22-2.53s-1.82,3.77-7.13,3.63c0,0-6.53,0-7.08-6.07,0,0,0-3.48,3.23-4.27C191.81,254.09,193.48,254,193.54,255Z"/><path class="cls-16" d="M191.36,258.31s2.07-3.23,5.41-2.94l-.2.7S192,258.36,191.36,258.31Z"/><path class="cls-16" d="M198.09,255.68a4.18,4.18,0,0,1-2,4.22S196.21,256.82,198.09,255.68Z"/><path class="cls-16" d="M201,258.06s-1,3-4.82,2.53c0,0-3.11-.25-2.69-3.2,0,0,1.25,2,2.88,2.24C196.39,259.63,197.83,260.15,201,258.06Z"/><path class="cls-17" d="M178,211.38l-4.85,28.34a19.66,19.66,0,0,0-4,1Z"/><path class="cls-18" d="M287.06,224.25s11.94,41.36,7.08,45.14c0,0-3.54-3.08-4.65-16.1Z"/><path class="cls-19" d="M211.11,268.73s2.58-4.48,10.62-4.63c0,0,10.09-.37,14.49,1.19a8.14,8.14,0,0,0,3.65-.07s-13.21-9.75-3.29-17.2c0,0,4.75-3.28,10.72,2.19,0,0,10.39,9,9.64,17.92,0,0-.61,4.1-2.2,5.44,0,0,9.86,7.36,37.28-3.28,0,0,13.25-6.64,23.87-5.45,0,0,14.57.38,25.29,15.9,0,0,9.76,13.26,13.41,23.26a8.76,8.76,0,0,1,10.62-2.84s10,4,1.06,19.54c0,0-7.59,11.53-21.85,1.69a18.89,18.89,0,0,1-4.15-9.25s-3.84-7.46-16.39-17.4c0,0-4.75,23.37-19.52,19.49l-27.62-.89-15.07,8.84s-20.29-2.33-33.79-8.15c0,0-33.23-10.14-41.28-25.95,0,0,5.62,2.84,14.57-6.71Z"/><path class="cls-20" d="M324.84,283.56l-1.51,11.63s16.23,13.43,17.45,17.31c0,0,.76,2.53,1.06,3.88,0,0,2.81,10.81,14.79,10,0,0,3.78-.21,8.12-4,0,0-14.06,1.79-19.22-12.33,0,0-2-6.86-11.13-14.92C334.4,295.14,326.82,287.29,324.84,283.56Z"/><path class="cls-21" d="M245.89,314.93,260.56,322l1.31,1.29S251.45,322.09,245.89,314.93Z"/><path class="cls-8" d="M273.7,292.66s17.3,7.9,22.77,12.38l8,10s11.53,2.39,18.06-14.91c0,0,12.14,13.42,9.56,24.6,0,0-5.92,14.62-34.45,7.31,0,0-16.84,2.39-36.27-9.4l-15.52-7.7s-4-2.06-2.3-5a4.47,4.47,0,0,1,4.17-.23s-9.11-3.8-7.67-8.72c0,0,.53-1.94,4.41-.38l11.76,5s-8.58-5.52-6.76-8.8c0,0,1.44-1.79,8.35,1.79,0,0,10,4.7,13.58,5.67l12.75,1s-8.81-3.81-11.38-9C272.8,296.16,271.73,292.88,273.7,292.66Z"/><path class="cls-21" d="M304.51,315.63s12.14,7.38,24.13-5.29c0,0-3.87-9.56-6-10.3C322.64,300,318.32,318.09,304.51,315.63Z"/><path class="cls-21" d="M273.86,292.81s-1.75,5.15,11.53,12.6c0,0-10.32-2.38-12.44-10.07C273,295.34,272.49,293,273.86,292.81Z"/><path class="cls-21" d="M270.77,311.16s-17.09-7.16-21.45-13.93c0,0-.55,1.74,1.93,4.33a29.78,29.78,0,0,0,7.13,5.26S266.72,311.2,270.77,311.16Z"/><path class="cls-21" d="M241.33,304.94s21.3,11.08,25.8,11.44c0,0-3,.74-7.89-1.3C259.24,315.08,246.52,309.69,241.33,304.94Z"/><path class="cls-8" d="M112.85,285.21s2.43,14.61,17.45,15.35c0,0,20,.16,26.26,3.88L171.28,311s2.42.74,1.51,2.08c0,0,0,3.88-13.2-.29,0,0,10.93,5.31,17.7,8.69,0,0,9.72,5.78,4.05,8.65,0,0,5.57,6.27-2.93,4.68l-5.36-1.4s5.06,4.28,2.43,6.47c0,0-2.94,2.88-11.54-2.19,0,0,7.49,6.66-2.53,4.18,0,0-2.42-.4-12.13-5.47,0,0-6.58-3.78-19.33-10.14s-25-12.73-24.68-29.43A19.54,19.54,0,0,1,112.85,285.21Z"/><path class="cls-21" d="M150.34,306.82s12.14,8.81,22,5.83l.91.89S161.57,317.57,150.34,306.82Z"/><path class="cls-21" d="M157.92,318.61c-.31-.33,20.64,9.55,20.64,9.55s.76,1.79-6.37-1.05C172.19,327.11,160.5,321.29,157.92,318.61Z"/><path class="cls-21" d="M149.28,324l24,9.25S159.59,331.58,149.28,324Z"/><path class="cls-21" d="M149.58,330.39l14.87,7.16S163.23,340.54,149.58,330.39Z"/><path class="cls-10" d="M198.22,104.59s8.19,19.7,29.44,22.23c0,0,10.77,2.46,6.9,12.53,0,0,2.51,2.53,4.48-.9,0,0,1.62-2.28,2-7,0,0,.91-5.21,5.8-6.26,0,0,5.05-.85,6.64,5.08a15.79,15.79,0,0,1-3.23,11.86,5.57,5.57,0,0,1-.89.85S248.14,175.6,265,183.05c0,0,1.24-48.73-3.32-60.36,0,0-37.78-47.87-71.92-14.77,0,0-9.93,11.94-3.66,32.22,0,0-2.79,32.11,2.95,40.22l13.15-1,9.74-3-.45-.24-.28-.15s-5.38-.56-7.85-4.48c0,0-11.42-13.72-12.18-19.76a43.25,43.25,0,0,1-.1-13.4S183.24,117.18,198.22,104.59Z"/><path class="cls-22" d="M206.58,100.32s29.92-3.39,35,57.71c0,0-4.36,23.27,17.29,31.63,0,0,24.59,11.32,9.57,30.11,0,0-33.69,36.69-75.11-20.13,0,0-9.32-18-11.85-19,0,0-6.58,0-9.51,7.46,0,0,16,17.94,25.43,57.39,0,0,4.79,5.37,10.63,7.45,0,0,7.74,3.36,5,13.51,0,0,6.82-3.94,23.13-1.13a6.39,6.39,0,0,0,3.65-.07s-13.43-10.44-2.2-17.59c0,0,4.66-2.3,10.83,3.87,0,0,13.29,11.93,6.24,22.07,0,0,30.28,4.18,34.83-51.3,0,0,1.82-23.22,5.61-28.28,0,0-6.72-5-14.11-15.57,0,0-7-8.64-10.76-43.21,0,0-2.73-59.5-64.18-42.95,0,0-27.32,12.08-24.13,40.72,0,0,.84,37.19-6,47.53a35.94,35.94,0,0,0-1.06,3.68s4.2-4.2,14.44-3.9c0,0-4.48-23.74-2-40.85,0,0,1.12-5.31-.71-13.67C186.68,125.77,183.68,103.79,206.58,100.32Z"/><path class="cls-8" d="M232.26,214l-2.48,15.77s4.48,1.42,6.3,1.34l.15-16.71,2.27-1.19Z"/><path class="cls-11" d="M219.42,136.17c0,1.69-1.69,3.06-3.78,3.06s-3.78-1.37-3.78-3.06,1.69-3.07,3.78-3.07S219.42,134.48,219.42,136.17Z"/><path class="cls-11" d="M200,136.76c0,1.69-1.7,3.06-3.79,3.06s-3.78-1.37-3.78-3.06,1.7-3.06,3.78-3.06S200,135.07,200,136.76Z"/><path class="cls-23" d="M352.85,300s1.66,3.67,1.74,4"/><path class="cls-24" d="M237.86,134.25s4.8,22.77,1.88,36.72c0,0-2.09,16.82,22.54,20.71,0,0,5.63,3.08,8.34,7.8,0,0,1.05-5.75-20.66-15.59,0,0-6.47-3.49-6.67-27.07C243.29,156.82,242.19,142.51,237.86,134.25Z"/><path class="cls-24" d="M250,96.62s13.15,2.46,21.29,45.22c0,0,2.79,36.61,23.93,52.15,0,0-22.68-11.23-25.81-41.69"/><path class="cls-24" d="M259,229.52s-29.11,10.46-52-13.84c0,0-17.22-18.77-20-35.08a10,10,0,0,0-7.51.93s14.09,17.23,20.66,32.91c0,0,12.21,27.7,48.21,20.93C248.4,235.37,250.9,235.06,259,229.52Z"/><path class="cls-24" d="M187,213.52s8,20.19,10.41,31.94c0,0,6.73,6.44,10.1,7.14,0,0,8.34,3.64,5.54,13.82,0,0,3.54-2.36,15.35-2.13a69.15,69.15,0,0,1,8.32,1.18s2.56.47,3.11-.25c0,0-4.83-4.26-5.71-7,0,0-11.69,2.72-17.79-2.31C216.37,255.93,199.67,243.16,187,213.52Z"/><path class="cls-24" d="M256.64,265.1s16.69-2.66,23.16-35.28c0,0,1.63,40.33-25.06,43.75C254.74,273.57,257.48,269.21,256.64,265.1Z"/><path class="cls-24" d="M187.77,138.15s1.26,36.3,8.56,41.63a28.32,28.32,0,0,1-12.1.62S188.82,144.3,187.77,138.15Z"/><path class="cls-25" d="M126.47,268.9s17.38-7.84,29.12-.62c0,0,2.93,17.59,27.52,17.72,0,0,3.47,2.43,4.56,5.51,0,0,22.59,25.69,73.74,31.12,0,0,18.67,11.52,36.27,9.4,0,0,20.1,5.89,30.75-2.93,0,0,9.65-10.82-6-28.51l.9-5.4s14.91,12.17,17.57,16.47c0,0,1.56,17.54,18.47,14,0,0-54.94,61.07-158.24,7.54,0,0-19.41-8.21-31.09-18.26,0,0,3-.51,2.19-3.28,0,0-16-7.28-18-8.3,0,0-3.92-1.54-16.59-2.55C137.59,300.81,127.72,286.74,126.47,268.9Z"/><path class="cls-17" d="M169.67,240.44s-14.87,6.16-14.08,27.84c0,0-2.67-1.38-4.7-2.15C150.89,266.13,154.33,246.29,169.67,240.44Z"/></g></g></g></svg>