<svg xmlns="http://www.w3.org/2000/svg" viewBox="0 0 488.96 489.99"><defs><style>.cls-1{fill:#2c90b1;}.cls-2{fill:#3ec7f4;}.cls-3{fill:#010101;}.cls-4{fill:#020202;}.cls-5{fill:#020201;}.cls-6{fill:#ed1c24;}.cls-7{fill:#fff200;}.cls-8{fill:#040404;}.cls-9{fill:#050404;}.cls-10{fill:#050504;}.cls-11{fill:#050505;}.cls-12{fill:#040403;}.cls-13{fill:#f4f4f4;}.cls-14{fill:#f5f4f4;}.cls-15{fill:#f3f3f3;}.cls-16{fill:#f6f6f6;}.cls-17{fill:#f4f3f3;}.cls-18{fill:#fafafa;}.cls-19{fill:#f1f0f0;}.cls-20{fill:#f2f1f1;}</style></defs><g id="Layer_2" data-name="Layer 2"><g id="Layer_1-2" data-name="Layer 1"><rect class="cls-1" x="12.85" y="13.88" width="476.11" height="476.11" rx="119.69"/><rect class="cls-2" width="476.11" height="476.11" rx="119.69"/><path class="cls-3" d="M244,177.81c27.53,0,55.06-.09,82.59,0,29.43.12,55.42,21.75,61,50.52a63,63,0,0,1-61.81,75.41c-54.57.4-109.14.29-163.71,0-30.34-.15-54.85-19.81-61.53-49.76-8.16-36.64,17.18-70.39,52.07-75.54a79.72,79.72,0,0,1,11.74-.68Q204.22,177.79,244,177.81Z"/><path class="cls-4" d="M352.34,146.26c18.49.74,32.16,9.84,42.46,24.63a78.28,78.28,0,0,1,5.13,8.89c2.34,4.53,1.42,8.23-2.3,10-3.57,1.71-6.81.27-9.06-4.37a49.75,49.75,0,0,0-17.72-20.63,34.78,34.78,0,0,0-18-5.61c-5.44-.19-8.45-2.87-8.24-6.84C344.83,148.59,347.94,146.12,352.34,146.26Z"/><path class="cls-5" d="M133.87,335c-20.8-1.44-34.66-13-44.59-30.42a38.31,38.31,0,0,1-2.09-4.27c-1.43-3.46-.24-7,2.76-8.52a6.28,6.28,0,0,1,8.45,2.82c2.34,4.15,4.5,8.37,7.56,12.1,7.84,9.57,17.53,15.4,30.19,15.76,4.45.12,7.26,3,7,6.81s-3.24,6-7.81,5.83C134.85,335.11,134.36,335.06,133.87,335Z"/><path class="cls-6" d="M237.43,241c0,15.61,0,31.21,0,46.82,0,2.06,0,3.28-2.81,3.26-25.44-.18-50.88.1-76.31-.35-22.28-.4-42.59-19.86-45.94-42-4.11-27.08,14-52.3,40-57.24a57.74,57.74,0,0,1,11-1.09c23.59,0,47.18,0,70.78-.09,2.84,0,3.4.78,3.37,3.47C237.36,209.5,237.43,225.23,237.43,241Z"/><path class="cls-7" d="M250.39,240.69c0-15.6.08-31.21-.08-46.81,0-3,.87-3.56,3.66-3.55,23.47.11,46.94,0,70.41.08,25,.09,44.56,15.47,50.45,39.58,6.51,26.7-12.36,55.39-39.42,60.09a69,69,0,0,1-11.73.87c-23.22,0-46.45-.05-69.67.11-3.26,0-3.72-1-3.69-3.92C250.46,271.66,250.39,256.18,250.39,240.69Z"/><path class="cls-8" d="M149.47,250.17a9.56,9.56,0,0,1-9.58,9.52,10,10,0,0,1-9.45-9.43c0-4.89,4.86-9.72,9.73-9.62A9.84,9.84,0,0,1,149.47,250.17Z"/><path class="cls-9" d="M171.48,259.7a9.72,9.72,0,0,1,9.59,9.56c-.09,4.78-4.77,9.4-9.54,9.41a9.91,9.91,0,0,1-9.51-9.73A9.54,9.54,0,0,1,171.48,259.7Z"/><path class="cls-8" d="M206.18,269a9.37,9.37,0,0,1,9.34-9.29,9.62,9.62,0,0,1,9.56,9.52,10,10,0,0,1-9.43,9.46A9.77,9.77,0,0,1,206.18,269Z"/><path class="cls-8" d="M149.47,218.71a9.52,9.52,0,0,1-9.62,9.45,9.44,9.44,0,1,1,.33-18.88A9.59,9.59,0,0,1,149.47,218.71Z"/><path class="cls-10" d="M325.8,262.56a9.78,9.78,0,0,1,9.46-9.34c4.92,0,9.69,5,9.51,9.82a9.83,9.83,0,0,1-9.62,9.2A9.44,9.44,0,0,1,325.8,262.56Z"/><path class="cls-11" d="M313.23,237.56a9.81,9.81,0,0,1-9.26,9.57,9.93,9.93,0,0,1-9.8-9.45c0-5,4.72-9.69,9.67-9.61A9.93,9.93,0,0,1,313.23,237.56Z"/><path class="cls-9" d="M303.75,259.7a9.57,9.57,0,0,1,9.48,9.61,10,10,0,0,1-9.54,9.36c-4.79,0-9.43-4.61-9.52-9.42A9.68,9.68,0,0,1,303.75,259.7Z"/><path class="cls-8" d="M322.61,202.93a10,10,0,0,1,9.55,9.33c.13,4.93-4.59,9.73-9.56,9.73a9.66,9.66,0,0,1-9.38-9.74A9.55,9.55,0,0,1,322.61,202.93Z"/><path class="cls-12" d="M363.48,231.14a9.55,9.55,0,0,1-9.4,9.65,9.46,9.46,0,1,1,0-18.91A9.47,9.47,0,0,1,363.48,231.14Z"/><path class="cls-13" d="M140.22,253.15c-2,0-3.15-1.12-3.21-2.86a2.82,2.82,0,0,1,2.88-3.09,2.72,2.72,0,0,1,3,2.88A2.69,2.69,0,0,1,140.22,253.15Z"/><path class="cls-14" d="M174.59,269.2c-.31,1.83-1.41,3-3.16,2.91a2.75,2.75,0,0,1-2.85-3.07c.06-1.94,1.17-2.85,3-2.82S174.36,267.45,174.59,269.2Z"/><path class="cls-15" d="M218.65,269c-.26,1.8-1.23,3.08-3,3.09a2.75,2.75,0,0,1-2.95-3,2.6,2.6,0,0,1,2.87-2.95C217.49,266.17,218.32,267.36,218.65,269Z"/><path class="cls-16" d="M140,215.71c1.65.26,2.89,1,2.91,3a2.67,2.67,0,0,1-2.89,3,2.79,2.79,0,0,1-3.07-2.88C137,217,138.18,216,140,215.71Z"/><path class="cls-17" d="M338.32,262.67c-.3,1.66-1,3-2.95,3a2.62,2.62,0,0,1-3.06-2.77,2.79,2.79,0,0,1,2.78-3.16C336.92,259.63,337.85,261,338.32,262.67Z"/><path class="cls-18" d="M303.78,234.58c1.76.27,2.91,1.18,2.87,3.08a2.67,2.67,0,0,1-3,2.89,2.7,2.7,0,0,1-2.92-3C300.77,235.7,302,234.78,303.78,234.58Z"/><path class="cls-14" d="M303.41,266.16c2.15.15,3.25,1,3.26,3a2.73,2.73,0,0,1-3,3,3,3,0,0,1-.3-5.94Z"/><path class="cls-19" d="M322,209.47c2.49,0,3.53,1.19,3.58,2.9a2.77,2.77,0,0,1-2.9,3,3,3,0,0,1-.68-5.95Z"/><path class="cls-20" d="M354.12,234.35c-1.91-.23-3.1-1.33-3.06-3.07a2.8,2.8,0,0,1,3.07-2.89,2.67,2.67,0,0,1,2.86,3C357,233.3,355.78,234.13,354.12,234.35Z"/></g></g></svg>