<svg xmlns="http://www.w3.org/2000/svg" viewBox="0 0 488.96 489.99"><defs><style>.cls-1{fill:#659d9a;}.cls-2{fill:#87d0ca;}.cls-3{fill:#010101;}.cls-4{fill:#fcdcd4;}.cls-5{fill:#f27b96;}</style></defs><g id="Layer_2" data-name="Layer 2"><g id="Layer_1-2" data-name="Layer 1"><rect class="cls-1" x="12.85" y="13.88" width="476.11" height="476.11" rx="119.69"/><rect class="cls-2" width="476.11" height="476.11" rx="119.69"/><path class="cls-3" d="M298.45,371.77H267.31c-3-.65-4.33-2.64-4.44-5.6.83-4.15,2.73-5.82,7-5.9,5.72-.09,11.45,0,17.17,0,3.52,0,3.64-.13,3.65-3.6,0-16,.11-32-.07-48-.05-4.19,1.46-6.74,5-8.89,21.63-13.1,36.73-31.66,44.87-55.59a98.5,98.5,0,0,0,5.06-40.69c-2.33-26.79-13.19-49.43-32.82-67.64a99.53,99.53,0,0,0-61.23-26.86,117,117,0,0,0-57.61,9.43c-23.52,10.39-39.27,27.83-46.42,52.73a94.22,94.22,0,0,0-3.89,27.52,14.6,14.6,0,0,1-2.63,8.52c-7.76,11.92-15.42,23.9-23.23,35.78-4.18,6.37-.8,12.88,3.59,14.88a11.44,11.44,0,0,0,5,1c3.85,0,7.7,0,11.54,0,5.42.1,7.88,2.55,7.89,7.94,0,16.81.18,33.63-.08,50.45-.11,6.49,4.62,13.23,13.17,11.36,1.74-.38,3.54-.5,5.3-.78q14.06-2.22,28.11-4.32c6.12-.91,9.27,1.71,9.32,7.87.06,8.49,0,17,0,25.49,0,3.33.1,3.42,3.49,3.43,4.92,0,9.84,0,14.76,0s6.84,2.16,6.89,6.91a5,5,0,0,1-3.92,4.6H193.23c-3.17-.8-4-3.12-4.06-6.06,0-8.11,0-16.22,0-24.33,0-.8,0-1.6,0-2.4,0-1.56-.68-2.29-2.33-2s-3.35.52-5,.7c-4.2.57-8.36,1.35-12.56,1.92-3.77.62-7.54,1.3-11.34,1.63-7.89.7-14.41-2.23-19.62-8.15a28.52,28.52,0,0,1-4.15-8.31,15.45,15.45,0,0,1-.7-5.49c.15-14.87-.18-29.74,0-44.61,0-3.09-.46-3.52-3.57-3.55-1.87,0-3.74,0-5.61,0-4.57.06-8.42-1.83-12-4.41-.71-.61-1.34-1.31-2-2a20.48,20.48,0,0,1-5-6.9c-3.27-7.85-2.09-15.15,2.51-22.16q11.11-16.93,22-34a13.12,13.12,0,0,0,1.26-2.37c.74-4-.13-8.11.69-12.14.27-1.36.48-2.77.63-4.18a80.89,80.89,0,0,1,1.6-8.74c3.46-15.63,10-29.74,20.5-41.94,15.23-17.73,35-27.58,57.36-32.82,13.46-3.14,27.08-3,40.75-2.57,16,.52,30.65,5.54,44.69,12.8,1,.6,2.08,1.13,3.08,1.77,2.32,1.49,4.76,2.78,7,4.34a159.47,159.47,0,0,1,16.58,13.43,31.84,31.84,0,0,1,3.35,3.8,81.27,81.27,0,0,1,5.47,6.12,113.31,113.31,0,0,1,14.18,22.51c1.5,2.71,2.51,5.64,3.77,8.47a113.6,113.6,0,0,1,7.11,29.57,58.22,58.22,0,0,1,.52,9.87,39.4,39.4,0,0,1,0,4.21A109.24,109.24,0,0,1,349.65,255,121.35,121.35,0,0,1,335,280.73a117.25,117.25,0,0,1-23.59,23.34,39.31,39.31,0,0,1-5,3.46c-2.88,1.41-4,3.53-3.31,6.65,0,12.16.17,24.32-.06,36.47.14,3.33.14,6.65,0,10,.06,1.6,0,3.2,0,4.79C303,368.65,301.63,370.85,298.45,371.77Z"/><path class="cls-4" d="M263.52,365.92c-3.48,0-7,0-10.44,0-1.11,0-2.13,0-2.82,1.06-.13-3.87-1.66-6-4.56-6.4-3.09-.42-5.23,1.39-6.33,5.36-3.47,0-6.94,0-10.42,0-1.09,0-2.14,0-2.8,1.05-.16-4.73-1.87-6.4-6.56-6.41-5.45,0-10.91-.1-16.37,0-1.94.05-2.55-.38-2.52-2.45.12-9.21.05-18.43,0-27.64,0-5.53-2.73-7.71-8.19-6.84-12,1.91-23.95,3.77-35.95,5.51-6.06.88-11.6-4.36-11.61-10.84,0-17.09,0-34.17,0-51.26,0-6.37-1.55-7.91-7.9-7.91H125.79a10.69,10.69,0,0,1-9-16.61c7.38-11.37,14.63-22.83,22.19-34.07a23,23,0,0,0,3.92-13c.41-16.1,4.16-31.41,12.51-45.34,10.6-17.67,26.25-29.08,45.42-35.94a123.33,123.33,0,0,1,42.81-7c44.52.34,83.17,28.4,97.77,70.87,15.57,45.32-3.53,97.09-45.05,121.64-3.61,2.13-5.1,4.5-5,8.72.21,16.55.05,33.1.13,49.65,0,2-.45,2.57-2.49,2.52-6.26-.14-12.52-.06-18.79,0C266,360.55,264.51,361.77,263.52,365.92Z"/><path class="cls-3" d="M307.87,182.88a34.91,34.91,0,0,1-9.57,24.53Q273.51,234,248.72,260.6a20,20,0,0,1-3.1,2.94c-2.32,1.58-4.85,1.08-7.16-1.38q-13.5-14.37-26.93-28.81c-8.48-9.1-17-18.12-25.38-27.33-15.81-17.43-9-47.18,12.75-55.35,12-4.52,23-2,32.43,6.7,3.47,3.21,6.61,6.8,9.75,10.35,1.28,1.44,2,1.8,3.43.11,2.65-3.14,5.5-6.12,8.39-9.05,8.65-8.78,19-12.27,31-8.9s19.4,11.8,22.81,23.73A28.68,28.68,0,0,1,307.87,182.88Z"/><path class="cls-5" d="M297.12,181.19c.09,8.31-2.19,14-6.63,18.76-15.28,16.43-30.63,32.81-45.87,49.29-1.59,1.72-2.34,1.25-3.64-.15-15.34-16.51-30.78-32.92-46.08-49.47-9.08-9.82-8.65-25.31.74-34.34,8.2-7.88,20.32-7.93,28.37.1,4.8,4.8,9.35,9.86,14,14.82,3.43,3.66,6.21,3.68,9.69,0,3.86-4.1,7.85-8.1,11.53-12.36,7.06-8.17,16-9.95,24-6.82A22.69,22.69,0,0,1,297.12,181.19Z"/><circle class="cls-3" cx="244.39" cy="365.99" r="7.07"/></g></g></svg>