<svg xmlns="http://www.w3.org/2000/svg" viewBox="0 0 488.96 489.99"><defs><style>.cls-1{fill:#6a498d;}.cls-2{fill:#7b56a4;}.cls-3{fill:#fff;}.cls-4,.cls-6{fill:none;stroke-width:12px;}.cls-4{stroke:#521f63;stroke-miterlimit:10;}.cls-5{fill:#521f63;}.cls-6{stroke:#8dc63f;stroke-linecap:round;stroke-linejoin:round;}</style></defs><g id="Layer_2" data-name="Layer 2"><g id="Layer_1-2" data-name="Layer 1"><rect class="cls-1" x="12.85" y="13.88" width="476.11" height="476.11" rx="119.69"/><rect class="cls-2" width="476.11" height="476.11" rx="119.69"/><path class="cls-3" d="M228.11,262.68c-3.52,2.27-6.37,5.44-10.88,3.17s-5.8-6-5.23-11.11c-4.1,1.26-7.77,2.16-11.22-.85-3.27-2.85-3.3-6.49-3.1-10.91-5.08,3.35-9.63,3-13-1.61S182.3,231.62,186,228c5.48-5.35,3.94-9.68-.57-14.22-4-4-6.1-8.16-1.15-13.23,1.94,2.54,4,5.19,6,7.82,2.91,3.78,5.12,7.8,11.37,7.55,4.31-.18,6.43,4.32,6.5,8.53.06,3.56.62,5.37,4.81,5.49s6.68,3,7.45,7.11c.6,3.13,2.07,4.81,5.57,4.72,3.78-.09,6.36,2.1,7.34,5.68a9.58,9.58,0,0,0,6.07,6.72,12.08,12.08,0,0,1,5.34,4.27,8.94,8.94,0,0,0,5.88,3.7c2.12.25,4-.25,4.93-2.34.83-1.9-.05-3.22-1.72-4.45-4.12-3-8.07-6.32-12.07-9.53-1.53-1.23-3.52-2.53-1.71-4.77,1.5-1.86,3.35-1.47,5.21-.11,6.81,5,13.79,9.84,20.49,15,3.08,2.37,5.89,3.65,8.63.15,2.9-3.71.92-6.61-2.24-9-7.08-5.34-14.19-10.64-21.26-16-2-1.5-5-3-2.95-6,2.21-3.19,4.44-.43,6.4,1q12.66,9.22,25.28,18.49c2.79,2,5.8,4.26,8.74.62,3.11-3.88,1-6.86-2.36-9.4-9-6.74-17.93-13.54-26.88-20.31-.79-.6-1.52-1.26-2.34-1.79-2.07-1.35-3.42-3.39-2-5.44s3.74-1,5.61.38c7.25,5.45,14.54,10.83,21.81,16.24,3.16,2.34,6.37,4.63,9.49,7s6.52,3,9.35-.38,2.61-6.93-.71-10q-17-15.6-34.16-31.12c-4.53-4.12-8.93-8.39-13.63-12.31-6.55-5.48-14.76-2.81-17,5.43-2.13,8-6.63,13.5-14.86,15.91-4.19,1.23-7.47,0-10.22-2.68-2.6-2.51-.67-5.42.21-8.2s1.88-5.71,1.91-8.58c.08-5.46,1.14-10.51,4.63-15.45-5.9-1.51-11.4-.13-16.84-1,.9-6,3.65-8.51,10.13-8.17,10.52.56,21,.8,31.11-4.28,6.84-3.43,14.77-1.46,22,.7,6.23,1.87,12.45,3.63,18.91,4.14,2.43.19,3.31,1.31,4.2,3.27,7,15.32,14.12,30.6,21.18,45.89.49,1.05,1.43,2.65,1,3.21-4.06,5.9-1.37,11.47-.1,17.45,1.44,6.73-2.32,11.52-9.1,13.83-2.25.76-3.6,1.42-4,4.49-.77,5.58-4.6,9.1-10.52,9.29-2.34.07-3.05.75-3.85,3-2.65,7.42-8.67,9.86-16,6.71-2.27-1-3.35-1.21-5.12,1.19-3.34,4.56-8.16,6-13.58,3.54-1.61-.72-2.57-.93-3.81.81-2.22,3.13-4.92,5.58-9.41,4.08C228.56,271.11,228,267.27,228.11,262.68Z"/><path class="cls-3" d="M198.8,147.67c.43,1.83-.67,3.14-1.3,4.52q-11.58,25.31-23.29,50.55c-3,6.42-4,6.73-10.25,3.46-11.69-6.17-12.2-4.76-6-17.82,7.33-15.32,14.58-30.68,21.46-46.21,2.09-4.71,4.32-5.41,8.45-2.87,2.49,1.53,5.28,2.56,7.87,3.93C197.57,144.18,199.23,145.33,198.8,147.67Z"/><path class="cls-3" d="M302.75,138.22c3.61-.26,4.92,1.43,5.89,3.47q12.66,26.51,25.29,53.05c1.72,3.63.79,6.15-2.86,8.22-12.89,7.31-13.07,7.28-19.19-5.87-7.09-15.27-14.21-30.53-21.54-45.69-2-4.07-1.54-6.57,2.74-8.41C296.67,141.45,300.09,139.55,302.75,138.22Z"/><path class="cls-4" d="M281.43,103.84H208.58a48.58,48.58,0,0,0-42.08,24.3l-36.42,63.08a48.59,48.59,0,0,0,0,48.59L166.5,302.9a48.59,48.59,0,0,0,42.08,24.29h72.85a48.59,48.59,0,0,0,42.08-24.29l36.42-63.09a48.59,48.59,0,0,0,0-48.59l-36.42-63.08A48.58,48.58,0,0,0,281.43,103.84Z"/><circle class="cls-5" cx="245.01" cy="327.19" r="44.47"/><polyline class="cls-6" points="222.51 326.21 239.33 346.2 266.19 310.42"/></g></g></svg>