<svg xmlns="http://www.w3.org/2000/svg" xmlns:xlink="http://www.w3.org/1999/xlink" viewBox="0 0 488.96 489.99"><defs><style>.cls-1{fill:#bc351b;}.cls-2{fill:#e74225;}.cls-3{fill:#fff;}.cls-4{fill:#ef3d39;}.cls-5{fill:#febe10;}.cls-6{fill:url(#linear-gradient);}</style><linearGradient id="linear-gradient" x1="147.64" y1="283.25" x2="331.48" y2="177.11" gradientUnits="userSpaceOnUse"><stop offset="0" stop-color="#fff200"/><stop offset="0.15" stop-color="#fbc508"/><stop offset="0.4" stop-color="#f57d14"/><stop offset="0.61" stop-color="#f1491d"/><stop offset="0.77" stop-color="#ee2822"/><stop offset="0.85" stop-color="#ed1c24"/><stop offset="0.87" stop-color="#ed1c24"/><stop offset="1" stop-color="#ed1c24"/></linearGradient></defs><g id="Layer_2" data-name="Layer 2"><g id="Layer_1-2" data-name="Layer 1"><rect class="cls-1" x="12.85" y="13.88" width="476.11" height="476.11" rx="119.69"/><rect class="cls-2" width="476.11" height="476.11" rx="119.69"/><circle class="cls-3" cx="239.07" cy="231.03" r="103.65"/><polygon class="cls-4" points="280.34 239.69 245.35 223.16 273.12 150 192.47 247.2 227.65 261.7 219.44 281.69 238.69 288.97 280.34 239.69"/><path class="cls-4" d="M232.2,296.65l-16.36-6.19-5.47,13.32c-2.69,6.53,5.89,11.73,10.44,6.35Z"/><path class="cls-5" d="M372.22,136.88a38.36,38.36,0,0,0-73.5-15.38A97.08,97.08,0,0,1,350,171.67,38.34,38.34,0,0,0,372.22,136.88Z"/><path class="cls-5" d="M181.06,121.94a38.35,38.35,0,1,0-51.23,50.17A97,97,0,0,1,181.06,121.94Z"/><path class="cls-5" d="M355.85,230.18a116.3,116.3,0,1,0-181.16,96.48l-.13.17-20.13,33.4A8.45,8.45,0,0,0,168.91,369L189,335.55c.1-.17.15-.35.24-.52a116.08,116.08,0,0,0,96.93,1.64,1.21,1.21,0,0,0,.09.2l19.2,31.82a8.44,8.44,0,1,0,14.76-8.21l-19.14-31.71A116.29,116.29,0,0,0,355.85,230.18ZM239.56,336.34A106.16,106.16,0,1,1,345.72,230.18,106.28,106.28,0,0,1,239.56,336.34Z"/><path class="cls-6" d="M239.56,336.34A106.16,106.16,0,1,1,345.72,230.18,106.28,106.28,0,0,1,239.56,336.34Zm0-202.41a96.25,96.25,0,1,0,96.25,96.25A96.36,96.36,0,0,0,239.56,133.93Z"/></g></g></svg>