<svg xmlns="http://www.w3.org/2000/svg" viewBox="0 0 488.96 489.99"><defs><style>.cls-1{fill:#b2104a;}.cls-2{fill:#da1c5c;}.cls-3{fill:#fff;}.cls-4{fill:#710028;}</style></defs><g id="Layer_2" data-name="Layer 2"><g id="Layer_1-2" data-name="Layer 1"><rect class="cls-1" x="12.85" y="13.88" width="476.11" height="476.11" rx="119.69"/><rect class="cls-2" width="476.11" height="476.11" rx="119.69"/><path class="cls-3" d="M143.63,250.06c-10.9-4.29-17.54-13.92-17.61-26-.11-18.39-.06-36.79-.06-55.18,0-14.61,0-29.23.05-43.84.08-11.48,5.11-20.1,15.41-25.41a29,29,0,0,1,13.49-2.85q46.14,0,92.3,0,39.45,0,78.9,0c4.95,0,9.82.59,14.26,2.87,10.1,5.18,15.27,13.61,15.38,24.89.17,18,.1,35.93.1,53.89,0,15,0,30.08-.06,45.12-.05,11.48-5,20.12-15.29,25.49a28.06,28.06,0,0,1-13.19,2.91L267,252c-9.54,0-19.08-.08-28.62,0-2.14,0-3.21-.54-3.18-2.82a29.46,29.46,0,0,0-.32-5.4c-.42-2.4.55-2.95,2.77-2.94,13.23.08,26.47,0,39.71,0q24.5,0,49,0c12,0,18.46-6.48,18.46-18.52q0-48.23,0-96.44c0-11.49-6.7-18.14-18.14-18.14q-66.66,0-133.31,0c-12.8,0-25.61-.06-38.42,0-8.24,0-14,3.68-16.71,10.54A18.08,18.08,0,0,0,137,125.1q0,49.26,0,98.5c0,5.11,1.53,9.64,5.54,13.08a19.52,19.52,0,0,0,12.94,4.14c6.78-.1,13.57,0,20.35,0,1.94,0,2.84.38,2.44,2.66s-.47,4.42-.78,6.62a1.84,1.84,0,0,1-2,1.84c-9,.47-18,0-27-.36A17.21,17.21,0,0,1,143.63,250.06Z"/><path class="cls-4" d="M208.66,366.57c-1.59-1.13-3.53-1.84-4.47-4-3.24,4.34-8.09,5.27-12.87,6.19a136.18,136.18,0,0,1-35.94,1.58c-7-.52-14-1.08-20.62-4-4.11-1.82-5.19-3.74-4.08-8.11,2-8,7.32-13.64,13.76-18.35a33.09,33.09,0,0,1,10.76-5.39c2.36-.64,1.93-1.36.51-2.78-6.13-6.1-9.68-13.33-8.66-22.18a20.23,20.23,0,0,1,23.24-17.48c10.66,1.5,18.41,11.93,17,22.78a28,28,0,0,1-8.63,16.85c-2,1.93-2,2,.7,2.91a38.82,38.82,0,0,1,21.78,17.51,62.25,62.25,0,0,1,3,6.88c3.7-12,12.14-19.23,23.14-24,.16-.06.34-.06.5-.11,3.68-1.24,3.55-1.12.91-4-6.73-7.46-10.16-15.92-6.71-26,3.08-9,13-14.51,22.51-12.88,9.32,1.6,17,10.4,16.79,19.78a27,27,0,0,1-8.74,19.7c-2.13,2-2.15,2,.54,3,9.33,3.43,16.85,9.09,21.92,17.78a21,21,0,0,1,2.61,7c1.48-2.7,2-5.5,3.51-7.89a39.32,39.32,0,0,1,20.74-16.49,12.59,12.59,0,0,1,1.43-.58c1.89-.41,1.5-1.19.4-2.15a29.16,29.16,0,0,1-7.78-11.67c-5.78-14.75,5.18-29.8,20.92-28.46a19.46,19.46,0,0,1,14.59,8.6c4.61,7.21,4.2,14.66,1.07,22.23a27.79,27.79,0,0,1-6.35,8.94c-1.84,1.66-1.83,2,.65,2.76a38.33,38.33,0,0,1,9.65,4.69,42.12,42.12,0,0,1,13.43,14.56c2,2.08,2.28,4.73,2.33,7.41,0,3-2.36,4.3-4.45,5.49a19.26,19.26,0,0,1-9.3,2.61,33.63,33.63,0,0,0-7.61,1c-6.7,1.67-13.45,1.09-20.2.82-2.29-.1-4.54.36-6.88.15-5.81-.51-11.39-2.26-17.21-2.69a12.84,12.84,0,0,1-7.37-3.42c-.88-.78-1.71-1.11-2.76-.38a32.52,32.52,0,0,1-16.63,5.52c-7,.47-14,1.5-21,1.18-3.82-.18-7.66-1-11.48-.87-6.15.17-11.85-1.42-17.52-3.39A2.45,2.45,0,0,1,208.66,366.57Z"/><path class="cls-3" d="M224.78,204.89c-.93,17.85,1.87,38.08,3.26,58.38.53,7.72,1.26,15.42,1.82,23.13.27,3.58-.74,6.74-4.13,8.49a7.49,7.49,0,0,1-8.27-.7c-2.43-1.77-3.06-4.43-3.29-7.25q-1.26-15.54-2.55-31.08c-.62-7.62-1.28-15.24-1.86-22.86-.13-1.72-.41-3-2.53-2.13-1.31.54-3.1-1.34-3.94.55-.52,1.18-.28,2.7-.39,4.07q-2.07,26.2-4.18,52.4c-.34,4.21-2.9,7.05-6.68,7.74a7.63,7.63,0,0,1-8.28-4.26c-1-1.93-.81-4-.65-6.06,1.52-19.27,3.1-38.54,4.6-57.81.71-9.09.26-18.21.37-27.31.08-6.36,0-12.72,0-19.08,0-.84.51-2.15-.85-2.34s-1.51,1.09-1.73,2.1q-4.41,20-8.82,40c-.65,3-2,5.28-5.1,6.17a6.08,6.08,0,0,1-6.52-2,6.29,6.29,0,0,1-1.52-6q3.28-14.84,6.54-29.66c1-4.69,2.14-9.37,3.07-14.08.86-4.41,2.9-7.39,7.61-8.62,6.73-1.77,13.41-3.67,20.36-4.36,3.39-.33,4.66.76,4.33,4.18-.57,5.8-1.38,11.58-2.13,17.37-.6,4.6-1.2,9.19-1.9,13.77-.35,2.34,1.14,3.89,2.16,5.63.89,1.52,1.32,4.17,2.93,4.17s1.84-2.77,3-4.12c2.11-2.56,2.06-5.46,1.64-8.52-1.24-9.19-2.38-18.39-3.58-27.58-.51-3.94.71-5.17,4.63-4.86,8.39.68,16.34,3.2,24.27,5.73,9.65,3.08,19.24,6.36,28.83,9.65,5.28,1.81,6.81,7.59,3,11.22-2.2,2.12-4.88,1.94-7.49,1.11-6-1.9-11.89-3.94-17.83-5.92-5.21-1.74-10.44-3.44-15.64-5.21-1.91-.65-2.61-.17-2.58,1.93C224.84,188,224.78,195.18,224.78,204.89Z"/><path class="cls-3" d="M223,141.55a21.16,21.16,0,0,1-8.41,16.18c-5.2,4.12-11,4-16.34-.11-6.8-5.2-9.92-14.54-7.36-22a16.41,16.41,0,0,1,18.08-10.86C217,126.08,222.88,132.78,223,141.55Z"/><path class="cls-3" d="M305.56,195.14c0,9-.05,18.05,0,27.07,0,2.16-.45,3.2-2.84,2.95a35.65,35.65,0,0,0-5.66,0c-1.82.09-2.36-.64-2.35-2.42.05-11.08,0-22.16,0-33.25,0-7.39.08-14.78,0-22.17,0-2,.61-2.64,2.63-2.69,8.15-.2,8.14-.26,8.14,7.87v22.68Z"/><path class="cls-3" d="M278.7,203.1c0-6.54.05-13.07,0-19.6,0-1.79.55-2.48,2.35-2.37,2.15.12,4.3.09,6.45,0,1.56,0,2.07.67,2.06,2.19q0,19.71,0,39.44c0,1.6-.45,2.42-2.18,2.31-2.73-.16-6.13,1.12-8-.46s-.51-5-.57-7.63c-.12-4.64,0-9.28,0-13.93Z"/><path class="cls-3" d="M262.59,210.14c0-4.38,0-8.75,0-13.13,0-1.64.56-2.33,2.25-2.27,2.23.07,4.46,0,6.69-.06,1.29,0,1.88.5,1.87,1.82q0,13.51-.06,27c0,1.3-.69,1.58-1.79,1.58-2.31,0-4.63,0-6.94,0-1.6.07-2.1-.62-2.08-2.13.05-4.29,0-8.58,0-12.87Z"/></g></g></svg>