<svg xmlns="http://www.w3.org/2000/svg" viewBox="0 0 488.96 489.99"><defs><style>.cls-1{fill:#c6c198;}.cls-2{fill:#fffac2;}.cls-3{fill:#ef4048;}.cls-4{fill:#fff;}.cls-5{fill:#00a651;}</style></defs><g id="Layer_2" data-name="Layer 2"><g id="Layer_1-2" data-name="Layer 1"><rect class="cls-1" x="12.85" y="13.88" width="476.11" height="476.11" rx="119.69"/><rect class="cls-2" width="476.11" height="476.11" rx="119.69"/><path class="cls-3" d="M135.49,348.21c-.58-.78,0-1.51.2-2.2,2.23-9.12,8-15.62,15.76-20.42,1.51-.92,1.81-1.71,1.4-3.41a244.12,244.12,0,0,1-5.56-35.57c-2.25-24.42-2-48.89-1.55-73.36.18-10.47.87-20.92,2-31.33A235.6,235.6,0,0,1,153,149.84a1.61,1.61,0,0,0-.87-2.13c-7.39-4.37-13.14-10.2-15.83-18.58-.45-1.42-1.14-2.82-.82-4.39a3.78,3.78,0,0,0,1.79.2H339.06c.54,0,1.11.18,1.62-.18.6.78,0,1.5-.18,2.19-2.27,9.24-8.11,15.74-16.06,20.53a2.12,2.12,0,0,0-1.18,2.8,261.32,261.32,0,0,1,5.33,33.62c2.35,23.59,2.26,47.25,2,70.92q-.23,16.15-1.74,32.25a250.71,250.71,0,0,1-5.67,36,1.55,1.55,0,0,0,.84,2c6.6,4,12,9.08,15,16.31a37.42,37.42,0,0,1,1.9,6.21c.06.23.15.5-.21.59a3.9,3.9,0,0,0-1.79-.19H137.28A3.9,3.9,0,0,0,135.49,348.21Z"/><path class="cls-3" d="M237.93,352.13q50.44,0,100.88,0c1.48,0,1.84.36,1.8,1.82-.1,4.75,0,9.51,0,14.26,0,3.16-1.72,4.88-4.85,4.88H140c-3.18,0-4.83-1.65-4.83-4.86,0-4.85.05-9.71,0-14.56,0-1.3.36-1.54,1.59-1.53Q187.33,352.16,237.93,352.13Z"/><path class="cls-3" d="M135.25,120.23c0-5.41-.07-10.82,0-16.23a4.17,4.17,0,0,1,4.19-4.11H335.68c2.65,0,4.09,1,4.67,3.35,0,5.15,0,10.31,0,15.47,0,1.72-.1,1.8-1.79,1.82H137.75A4.07,4.07,0,0,1,135.25,120.23Z"/><path class="cls-4" d="M298.09,236.53a60.14,60.14,0,0,1-60,60c-33.08,0-60.27-27.29-60-60.14.28-33.24,27.2-60.07,60.09-59.88C271.33,176.65,298.21,203.59,298.09,236.53Z"/><path class="cls-4" d="M140.2,128.52h29.31c-1.18.69-2.15,1.19-3,1.79-6.44,4.38-6,12.29.88,15.91a20.29,20.29,0,0,0,9.83,2c8.69,0,17.39,0,26.22,0a2.35,2.35,0,0,1-1.53.54c-6.12,1.06-12.25,2-18.34,3.21s-10.5,5-14,9.87c-4.5,6.3-7,13.48-8.82,20.91a157.59,157.59,0,0,0-4,27.69,350.88,350.88,0,0,0,.1,42.9c.58,10.65,1.75,21.24,3.18,31.81,1.24,9.16,2.63,18.27,5.26,27.15.8,2.71.8,2.7,3.59,2.71a308.64,308.64,0,0,1,30.94,1.65l-4.13.56a90.76,90.76,0,0,0-24.11,6.1c-7.09,3-13.32,7.19-17.59,13.82a23.82,23.82,0,0,0-3,6.25,1.38,1.38,0,0,1-1.61,1.13c-3-.06-5.95,0-9,0a4.71,4.71,0,0,1,.81-2.45c3.05-6.49,8.24-10.87,14.33-14.32,2.34-1.33,2.31-1.3,1.65-3.91a227.74,227.74,0,0,1-4.68-25c-3.44-25.45-3.16-51-3.05-76.62,0-10.47.45-20.93,1.3-31.36,1.18-14.55,3.06-29,6.87-43.14a1.26,1.26,0,0,0-.78-1.74,36.9,36.9,0,0,1-13.13-10.75A25.91,25.91,0,0,1,140.2,128.52Z"/><path class="cls-5" d="M247.4,264.2c6.28-9.95,11.63-20,13.41-31.55-8.67,7.91-13.84,18.07-18.66,28.63a25.76,25.76,0,0,1-1.88-7.09,41.37,41.37,0,0,1,22.81-42.47,36.6,36.6,0,0,1,9.34-3c1-.17,1.2.22,1.53.92a34.93,34.93,0,0,1,3.2,18.43,41,41,0,0,1-17,30.18A35.06,35.06,0,0,1,247.4,264.2Z"/><path class="cls-5" d="M229.18,261.83c-4-9.33-8.67-18-16.13-24.83,1.62,9.92,6.12,18.6,11.5,27.09a14.4,14.4,0,0,1-4.52-1.4c-12-5.59-18.83-15.1-20.81-28.12a31.08,31.08,0,0,1,2.28-16.88,1.68,1.68,0,0,1,2.29-1.16c9.77,2,17.06,7.56,22.1,16,5.26,8.82,6.72,18.25,3.7,28.21C229.5,261.05,229.37,261.32,229.18,261.83Z"/></g></g></svg>