<svg xmlns="http://www.w3.org/2000/svg" viewBox="0 0 488.96 489.99"><defs><style>.cls-1{fill:#0075ae;}.cls-2{fill:#008ed4;}.cls-3{fill:#c2b59b;}.cls-4{fill:#ec008c;}.cls-5{fill:#f15a29;}.cls-6{fill:#010101;}.cls-7{fill:#8dc63f;}.cls-8{fill:#fbb040;}</style></defs><g id="Layer_2" data-name="Layer 2"><g id="Layer_1-2" data-name="Layer 1"><rect class="cls-1" x="12.85" y="13.88" width="476.11" height="476.11" rx="119.69"/><rect class="cls-2" width="476.11" height="476.11" rx="119.69"/><rect class="cls-3" x="121.26" y="171.28" width="84.98" height="5.36" transform="translate(-74.4 193.01) rotate(-51.31)"/><polygon class="cls-3" points="250.66 194.54 205.67 129.52 209.13 127.44 254.11 192.46 250.66 194.54"/><polygon class="cls-3" points="217.81 319.25 215.5 317.14 250.03 271.46 252.34 273.56 217.81 319.25"/><rect class="cls-3" x="157.38" y="238.86" width="5.36" height="83.1" transform="translate(-144.02 171.85) rotate(-40.63)"/><path class="cls-4" d="M201.76,147.44a25.35,25.35,0,1,1,25.35-25.35A25.37,25.37,0,0,1,201.76,147.44Zm0-31.95a6.6,6.6,0,1,0,6.6,6.6A6.6,6.6,0,0,0,201.76,115.49Z"/><path class="cls-5" d="M282.77,300.23A67.27,67.27,0,1,1,350,233,67.35,67.35,0,0,1,282.77,300.23Zm0-105.77a38.5,38.5,0,1,0,38.5,38.5A38.53,38.53,0,0,0,282.77,194.46Z"/><path class="cls-6" d="M263.82,214.49a26.22,26.22,0,0,0-3.77,33.34c7.76,11.67,24,14.76,35.73,6.82A26.87,26.87,0,0,0,306.34,241a.67.67,0,0,1,.79-.53q18.63.06,37.27.09c.47,0,.62.08.6.59-.11,3.43-.18,6.85-.26,10.28a3.65,3.65,0,0,0,3.94,4.06l6.94,0a3.81,3.81,0,0,0,4-3.92c.09-3.47.18-7,.24-10.42,0-.44.1-.58.57-.58,2.08,0,4.15,0,6.23,0,.53,0,.69.11.67.67-.11,3.4-.18,6.81-.26,10.21a3.64,3.64,0,0,0,3.94,4H378a3.8,3.8,0,0,0,4-3.92c.09-3.48.18-6.95.25-10.42,0-.4.08-.54.53-.58a7.64,7.64,0,0,0,7.13-7.65,7.26,7.26,0,0,0-7.34-7.22c-10.09,0-20.18-.06-30.26-.09q-22.38-.06-44.75-.1a.77.77,0,0,1-.89-.65,25.56,25.56,0,0,0-38.25-14.08A27.3,27.3,0,0,0,263.82,214.49Zm10,26.45a11.31,11.31,0,1,1,15.73-.07A11.2,11.2,0,0,1,273.82,240.94Z"/><path class="cls-7" d="M132.41,255.8H110.3a16.76,16.76,0,0,1-16.75-16.74V216.94a16.77,16.77,0,0,1,16.75-16.75h22.11a16.77,16.77,0,0,1,16.75,16.75v22.12A16.76,16.76,0,0,1,132.41,255.8ZM112.3,237.05h18.1V218.94H112.3Z"/><path class="cls-8" d="M215.92,371.66H196.08a18.86,18.86,0,0,1-16.3-9.41l-9.92-17.18a18.86,18.86,0,0,1,0-18.81l9.92-17.19a18.89,18.89,0,0,1,16.3-9.41h19.84a18.86,18.86,0,0,1,16.29,9.41l9.93,17.19a18.83,18.83,0,0,1,0,18.81l-9.92,17.19A18.85,18.85,0,0,1,215.92,371.66Zm-19.84-53.24-10,17.21L196,352.88l19.89,0,10-17.22-10-17.27Z"/></g></g></svg>