<svg xmlns="http://www.w3.org/2000/svg" viewBox="0 0 488.96 489.99"><defs><style>.cls-1{fill:#b99f25;}.cls-2{fill:#fed832;}.cls-3{fill:#fff;}.cls-4{fill:#fecd57;}.cls-5{fill:#ed193f;}.cls-6{fill:#00ad66;}.cls-7{fill:#2d3b43;}.cls-8{fill:#231f20;}</style></defs><g id="Layer_2" data-name="Layer 2"><g id="Layer_1-2" data-name="Layer 1"><rect class="cls-1" x="12.85" y="13.88" width="476.11" height="476.11" rx="119.69"/><rect class="cls-2" width="476.11" height="476.11" rx="119.69"/><circle class="cls-3" cx="240.41" cy="279.87" r="76.34"/><path class="cls-4" d="M234.08,204.11c-9.33-.47-17.54,3.8-26.19,6.23-2.47-.64-2.56-3-3.26-4.76-9-23.39-17.06-47.13-26.14-70.49a11.94,11.94,0,0,1-.9-5.38c.23-2.91,2.22-4.13,4.67-5a170.72,170.72,0,0,1,68.3-9.82A164,164,0,0,1,293.5,123c2.11.71,4.35,1.16,6,2.87,1.72,2.37.58,4.64-.22,6.94-8.1,23.26-16.06,46.56-24.06,69.85-.92,2.67-1.46,5.58-4.14,7.25-8.15-2.79-16-7.18-25.14-4.63a4.31,4.31,0,0,0,.16.59c.18.48,0,.61-.6.29-1.43-.81-1.58-2.3-1.74-3.68-1.66-15-3.57-29.91-3.89-45,0-.63.08-1.18,0-1.14-.26,4,.47,8.33.08,12.66-.86,9.54-2.27,19-2.94,28.58C236.79,200,236.32,202.51,234.08,204.11Z"/><path class="cls-5" d="M271.06,209.93q14.08-40.62,28.16-81.24a10.78,10.78,0,0,0,.33-1.8c5.44-1.84,9.27,2.24,13.35,4.22A168.25,168.25,0,0,1,371.59,178c4.08,5.12,7.23,10.84,11,16.14.78,1.08,1.73,2.45,0,3.7-23.83,13.82-47.72,27.56-71.44,41.58-3.83,2.26-5.21.65-7.1-2.17C295.84,224.81,284.61,216,271.06,209.93Z"/><path class="cls-6" d="M179,130.29q8.39,23.13,16.75,46.25,6.1,16.89,12.17,33.8c-12.76,7.22-24.31,15.83-32.22,28.5-2.37,3.79-4.47,1.2-6.53,0q-35.56-20.5-71.08-41.12c-1.63-1.94-.13-3.48.82-4.91,14.57-22,32.34-40.71,55.26-54.22,5.63-3.32,11.48-6.16,17.33-9C174,128.33,176.78,126.87,179,130.29Z"/><path class="cls-7" d="M234.08,204.11l5.67-49.4.61-.07q2.77,25.34,5.56,50.67c2.21,20.25,4.47,40.51,6.61,60.77a12.1,12.1,0,0,1-11.81,13.43c-7.51.34-13.3-4.71-12.73-12.24,1.12-14.81,2.9-29.56,4.36-44.34C233,216.66,233.51,210.38,234.08,204.11Z"/><path class="cls-8" d="M179,130.29c-1.85-1.41-3.53-1.08-5.63-.15-32.17,14.37-56.88,37.07-75.16,67a1.88,1.88,0,0,0-.12.6l-2.42-1.08c.87-6.17,5.7-10.08,8.87-14.82a143.42,143.42,0,0,1,35.77-36.32,194.88,194.88,0,0,1,37.59-21.14,189.44,189.44,0,0,1,73.61-11.28,148.36,148.36,0,0,1,39.18,7.28c3.64,1.18,7.18,3,11.18,2.79,8.1,4.21,16.35,8.14,24.25,12.68,23.73,13.66,42.42,32.67,57.59,55.29a24.79,24.79,0,0,1,1.86,4.49,4,4,0,0,1-2.88,2.16c-6.87-13.56-16.41-25.25-27.3-35.55-16.21-15.35-34.69-27.55-55.81-35.35a170.65,170.65,0,0,0-48.79-10.35c-23.43-1.7-45.8,1.9-67.75,9.56C181,126.81,178.38,127,179,130.29Z"/></g></g></svg>