<svg xmlns="http://www.w3.org/2000/svg" viewBox="0 0 488.96 489.99"><defs><style>.cls-1{fill:#0f416c;}.cls-2{fill:#165080;}.cls-3{fill:#fff;}</style></defs><g id="Layer_2" data-name="Layer 2"><g id="Layer_1-2" data-name="Layer 1"><rect class="cls-1" x="12.85" y="13.88" width="476.11" height="476.11" rx="119.69"/><rect class="cls-2" width="476.11" height="476.11" rx="119.69"/><path class="cls-3" d="M147.5,141c-.09,0-.21,0-.28-.06-2-1.42-5-2-6.26-3.71s1.6-4.11,2.1-6.44c1.64-7.68-.19-14.27-6.22-19.32s-12.9-5.92-20-2.66-10.56,9.15-11,16.78a16.33,16.33,0,0,0,2.65,9.8c.81,1.27.82,2-.73,2.48-2.35.77-4.27,2.36-6.3,3.67-.75-.67-.47-1.38-.47-2q0-17.79,0-35.56c0-5.08,1.6-6.63,6.7-6.63q17.36,0,34.7,0c3.81,0,5.28,1.12,5.91,4.32.48,6.45.14,12.91.19,19.37.06,5.94.58,11.88,0,17.81C148.38,139.62,149.17,140.91,147.5,141Z"/><path class="cls-3" d="M319.85,101.32c.31-2.87,2.36-3.89,4.78-3.91q18.64-.14,37.29,0c3.08,0,5,1.81,5,4.71.08,13.08,0,26.15,0,39.56-2.6-1.5-4.8-3.14-7.34-4.15-1.72-.67-.36-1.57,0-2.23,4.68-8.68,2.6-18.83-5.1-24.52a18.88,18.88,0,0,0-28.39,23.12c1.52,3.29,1.52,3.29-1.9,4.86-.43.2-.87.38-1.3.56-3.23,1.65-3.38,1.56-3.39-2.09,0-11.13,0-22.25,0-33.38A4.62,4.62,0,0,1,319.85,101.32Z"/><path class="cls-3" d="M126.3,164c3,1.91,3.36,4.28,3.32,6.84,0,2.19.07,4.4,0,6.59-.16,3.54-2,5.52-4.87,5.51s-4.66-2-4.73-5.57c0-2.19.05-4.4,0-6.59-.08-2.54.14-4.92,3.24-6.77-6.9,0-13-.07-19,0-2.3,0-3.23-.6-3.09-3.12.43-8,7.54-15.45,15.72-15.83,5.24-.25,10.52-.24,15.76,0,8.47.37,15.89,8.22,16,16.56,0,1.92-1,2.4-2.74,2.39C139.56,164,133.35,164,126.3,164Z"/><path class="cls-3" d="M344.85,164a6.3,6.3,0,0,1,3.21,6.32c-.12,2.67,0,5.36-.08,8a4.51,4.51,0,0,1-4.22,4.56c-2.57.21-4.52-1-5-3.63a37.74,37.74,0,0,1,0-11.67c.2-1.55,1.5-2.29,2.59-3.61-6.42,0-12.51,0-18.59,0-3.05,0-3.43-.5-3-3.59,1.22-9.1,8.2-15.34,17.31-15.41,4.58,0,9.18-.12,13.76,0,8.56.3,16.08,8,16.2,16.29,0,2.05-.73,2.71-2.66,2.69C358.11,164,351.89,164,344.85,164Z"/><path class="cls-3" d="M147.67,340.72a50.37,50.37,0,0,0-6-3.29c-1.92-.76-1.22-1.51-.58-2.69,3.56-6.59,3.42-13.14-.52-19.51a18.93,18.93,0,0,0-25.41-6.1c-8.68,5-12,16.43-7.09,25.1,1.17,2.06,1,2.94-1.2,3.58s-3.66,2.3-5.62,3.29a4,4,0,0,1-.32-2.55q0-17.51,0-35c0-5.08,1.45-6.53,6.42-6.54,5.16,0,10.32,0,15.49.06a2.72,2.72,0,0,1,3.66,0c5.61,0,11.22-.05,16.83,0,2.66,0,4.57,1.08,4.86,4,.6,5.32.07,10.67.27,16,.16,4.27.13,8.54.35,12.82a75.77,75.77,0,0,1-.49,10.49C148.31,340.8,147.91,340.63,147.67,340.72Z"/><path class="cls-3" d="M124.65,363.64c-6.79,0-13.58-.06-20.38,0-2.46,0-3.36-.8-3.2-3.38.47-7.44,7.09-14.81,14.47-15.5,6.66-.62,13.42-1.16,20,.39,7.45,1.76,11.89,7.45,12.87,15,.34,2.62-.61,3.46-3.06,3.44C138.43,363.6,131.54,363.64,124.65,363.64Z"/><path class="cls-3" d="M124.79,116.36a9.6,9.6,0,0,1-.09,19.2,9.6,9.6,0,0,1,.09-19.2Z"/><path class="cls-3" d="M333.69,126.07a9.84,9.84,0,0,1,9.63-9.71,9.6,9.6,0,0,1-.08,19.2A9.8,9.8,0,0,1,333.69,126.07Z"/><path class="cls-3" d="M124.87,316.05a9.47,9.47,0,1,1-9.69,9.48A9.57,9.57,0,0,1,124.87,316.05Z"/><path class="cls-3" d="M319.85,101.32c0,11.83.08,23.67-.06,35.5,0,2.7.64,3.53,3.18,2.49a10.65,10.65,0,0,1-3.46,2.36v-9.09c-2.18,2.82-4.69,3.12-7.39,3.06-3.44-.08-6.87,0-10.31,0-3.82-.06-6.11-2-6-5s2.16-4.61,6-4.63,7.83,0,11.75,0a7.2,7.2,0,0,1,5.9,2.22c0-5.27-.1-10.54,0-15.8C319.51,108.69,318.85,105,319.85,101.32Z"/><path class="cls-3" d="M147.5,141c1.14-.87.68-2.12.68-3.2q.09-18.06.09-36.12c.77,2.42.31,4.9.34,7.35.07,6.36,0,12.73,0,20.15,1.92-3.35,4.4-3.25,6.87-3.23,3.82,0,7.64,0,11.46,0,3.12,0,5.14,1.78,5.31,4.43a4.78,4.78,0,0,1-4.71,5.08c-4.76.23-9.54.14-14.31,0-1.7-.05-3.22-.88-4.62-3.12,0,3.19,0,5.53,0,7.87C148.63,141.07,148.73,142.07,147.5,141Z"/><path class="cls-3" d="M147.67,340.72c.89-.88.51-2,.51-3q.06-18.33,0-36.66c.77,1.14.39,2.42.39,3.62,0,7.68,0,15.36,0,23.65a7.11,7.11,0,0,1,6.37-3c3.82,0,7.64-.05,11.46,0,3.58.07,5.84,2.06,5.82,4.92s-2.17,4.66-5.93,4.68c-3.92,0-7.83-.07-11.74,0a7.72,7.72,0,0,1-6.09-2.2c0,2.67,0,5.33,0,8,0,.08-.29.23-.43.21S147.8,340.83,147.67,340.72Z"/><path class="cls-3" d="M191.39,126c1.63,0,3.25-.09,4.87,0a4.54,4.54,0,0,1,4.47,4.34c0,2.37-.94,4.35-3.51,4.82a32.49,32.49,0,0,1-11.92,0c-2.55-.48-3.56-2.45-3.54-4.82a4.65,4.65,0,0,1,4.48-4.37,5.44,5.44,0,0,1,.57,0h4.58Z"/><path class="cls-3" d="M219.92,126c1.62,0,3.25-.09,4.86,0a4.46,4.46,0,0,1,4.39,4.36c.12,2.68-1.12,4.45-3.76,4.88a33.53,33.53,0,0,1-11.35,0,4.56,4.56,0,0,1-3.82-4.91,4.71,4.71,0,0,1,4.53-4.31c1.71-.11,3.43,0,5.15,0Z"/><path class="cls-3" d="M120.05,230.43c0-1.72-.1-3.44,0-5.15a4.57,4.57,0,0,1,4.51-4.3c2.36.1,4.28,1.16,4.69,3.74a36.8,36.8,0,0,1,0,11.38,4.62,4.62,0,0,1-4.83,3.94,4.86,4.86,0,0,1-4.42-4.46,5.46,5.46,0,0,1,0-.57v-4.58Z"/><path class="cls-3" d="M120.07,258.8c0-1.71-.13-3.44,0-5.14a4.31,4.31,0,0,1,4.33-4.13,4.2,4.2,0,0,1,4.8,3.54,33.76,33.76,0,0,1,0,11.65,4.65,4.65,0,0,1-9.18-.49c-.16-1.79,0-3.61,0-5.42Z"/><path class="cls-3" d="M248.37,126c1.72,0,3.44-.11,5.15,0a4.36,4.36,0,0,1,4.21,4.28c.21,2.4-.94,4.39-3.45,4.87a31.8,31.8,0,0,1-11.91,0,4.28,4.28,0,0,1-3.49-5.07,4.32,4.32,0,0,1,4.35-4.1C244.93,125.92,246.66,126,248.37,126Z"/><path class="cls-3" d="M276.79,126c1.72,0,3.45-.1,5.15,0a4.31,4.31,0,0,1,4.25,4.23c.23,2.41-.85,4.4-3.35,4.89a30.51,30.51,0,0,1-12.19,0c-2.49-.51-3.59-2.54-3.31-4.94a4.35,4.35,0,0,1,4.3-4.18c1.71-.11,3.44,0,5.15,0Z"/><path class="cls-3" d="M120,201.91c0-1.62-.08-3.25,0-4.86a4.45,4.45,0,0,1,4.28-4.47,4.36,4.36,0,0,1,5,3.95,37,37,0,0,1,0,10.81,4.66,4.66,0,0,1-4.91,4.18,4.73,4.73,0,0,1-4.41-4.75c-.09-1.61,0-3.24,0-4.86Z"/><path class="cls-3" d="M348,201.93c0,1.72.09,3.44,0,5.15a4.6,4.6,0,0,1-4.4,4.41c-2.43,0-4.34-1.08-4.79-3.61a31.8,31.8,0,0,1,0-11.91c.5-2.48,2.37-3.59,4.88-3.38a4.28,4.28,0,0,1,4.25,4.19c.16,1.7,0,3.43,0,5.15Z"/><path class="cls-3" d="M126.53,297.05l-3.66,0c-2.46-1.81-3.13-4.28-2.92-7.21.17-2.38,0-4.77.09-7.15a4.5,4.5,0,0,1,4.43-4.65,4.44,4.44,0,0,1,4.89,4.12,50.08,50.08,0,0,1,.08,10.53C129.29,294.76,127.8,295.82,126.53,297.05Z"/><path class="cls-3" d="M191.38,335c-1.72,0-3.44.09-5.15,0a4.6,4.6,0,0,1-4.47-4.37c0-2.38,1-4.34,3.56-4.8a32.44,32.44,0,0,1,11.91,0c2.56.48,3.56,2.44,3.5,4.83a4.62,4.62,0,0,1-4.49,4.35,5.33,5.33,0,0,1-.57,0h-4.29Z"/><path class="cls-3" d="M314.65,317.69c-2.37-2.28-4.48-4.1-6.32-6.15-1.35-1.5-2.24-1.37-3.7-.13a78.62,78.62,0,0,1-34.52,17c-42.3,9.33-84.84-16.7-95.67-58.5-10.19-39.32,9.58-80.31,47.2-95.39,30.09-12,58.6-7.74,83.6,13.22,21,17.62,30.09,40.89,28.25,68.16a77,77,0,0,1-18.41,45c-1.34,1.61-1.59,2.62.17,4.05a44.65,44.65,0,0,1,4.68,4.65c.85.91,1.52,1,2.29,0a5.74,5.74,0,0,1,.6-.61c5.72-5.64,6.69-5.65,12.51,0C347.24,320.66,359.17,332.26,371,344c6.91,6.82,7.45,16.2,1.55,23.2a16.39,16.39,0,0,1-23.08,2.09c-4.28-3.66-8.19-7.76-12.23-11.7q-13.56-13.23-27.09-26.49c-3.65-3.58-3.66-5.73,0-9.37C311.52,320.34,313,319.14,314.65,317.69Zm-.08-65.23a61.65,61.65,0,1,0-61.82,58.67A61.28,61.28,0,0,0,314.57,252.46Z"/><path class="cls-3" d="M232.31,255c-13,4.44-13.88,5.15-24.48,20.34-12-19.47-8.66-46.85,9.1-63.57a52,52,0,0,1,68.56-3.17c21.22,16.87,25.19,46.14,12.59,67.1-4.74-10.86-12.75-17.75-24.5-20.65,6.52-7.67,9.27-16.33,7.12-26.06a27.62,27.62,0,0,0-11.06-16.84,28.75,28.75,0,0,0-36.73,3C223.61,224.52,220.61,240.87,232.31,255Z"/><path class="cls-3" d="M253,263.82c5.06,0,10.13-.13,15.19,0,10.68.35,20.54,9.11,22.39,19.58a3.8,3.8,0,0,1-1.29,3.74c-19.58,19.39-52.79,19.41-72.46.08a4.14,4.14,0,0,1-1.31-4.29,24.72,24.72,0,0,1,23.15-19.13c4.77-.14,9.55,0,14.33,0Z"/><path class="cls-3" d="M252.05,254.15a18.64,18.64,0,0,1-18-19.43,18.93,18.93,0,0,1,20.24-18.48c10.16.76,18.42,9.82,17.83,19.55C271.43,246.73,262.5,254.91,252.05,254.15Z"/></g></g></svg>