<svg xmlns="http://www.w3.org/2000/svg" xmlns:xlink="http://www.w3.org/1999/xlink" version="1.1" x="0px" y="0px" viewBox="0 0 439.036 331.00875" style="enable-background:new 0 0 439.036 264.807;" xml:space="preserve"><g><path d="M269.87,28.335h34.576C294.369,11.374,275.873,0,254.711,0h-16.145C251.978,5.553,263.053,15.635,269.87,28.335z"/><path d="M142.227,29.206c9.469-14.792,26.034-24.626,44.864-24.626c18.968,0,35.64,9.978,45.072,24.952   c4.429-0.771,8.975-1.196,13.621-1.196h18.668C254.375,11.374,235.879,0,214.717,0H187.09c-21.437,0-40.136,11.676-50.121,29.006   c0.476-0.023,0.946-0.061,1.427-0.061C139.674,28.945,140.954,29.039,142.227,29.206z"/><path d="M278.56,0c13.412,5.553,24.486,15.635,31.304,28.335h21.684c-10.056-16.925-28.496-28.284-49.603-28.332V0H278.56z"/><path d="M165.121,45.982c2.704,5.78,3.573,12.468,2.018,19.151c-0.159,0.684-0.355,1.35-0.559,2.013   c0.395,0.122,0.799,0.232,1.189,0.359c2.743,0.894,5.392,1.933,7.945,3.11c6.208-11.717,15.262-21.7,26.243-29.018V31.549h-36.837   V45.982z"/><path d="M292.532,134.337h26.504h12.415h22.584V107.59c0-40.456-32.794-73.253-73.251-73.253h-35   c-28.092,0-52.477,15.821-64.767,39.031c1.699,0.968,3.361,1.986,4.96,3.09c11.269-21.561,33.84-36.319,59.808-36.319   c37.193,0,67.45,30.257,67.45,67.45v20.946H264.62V74.306h-46.667v54.229h-4.3c0.835,1.83,1.46,3.773,1.844,5.802h30.287h35   H292.532z"/><path d="M361.665,34.337c28.753,11.904,49.037,40.249,49.037,73.254v26.745v0.001h28.334V107.59   c0-40.4-32.704-73.157-73.083-73.249v-0.004H361.665z"/><path d="M310.998,34.337c28.753,11.904,49.037,40.249,49.037,73.254v26.745v0.001h5.918h38.749V107.59   c0-40.456-32.794-73.253-73.251-73.253H310.998z"/><path d="M48.759,145.302l-0.31,0.005c-5.439,0-9.829-4.259-9.993-9.694l-1.333-43.334c-0.082-2.657,0.925-5.286,2.763-7.211   c0.902-0.928,2.854-2.734,5.93-4.538c3.253-1.901,8.523-4.17,15.172-4.175c0.019,0,0.036,0.002,0.055,0.003   c0.223-0.016,0.444-0.034,0.671-0.034h6.186c-3.072-2.278-6.782-4.136-10.815-5.343c-10.061-3.011-22.107-1.96-31.131,6.825   c-30.989,30.167-38.867,86.74,2.27,91.176c15.76,1.699,21.613-5.601,23.763-16.853v-7.473   C50.966,145.04,49.881,145.267,48.759,145.302z"/><path d="M108.076,200.36c-8.931-2.464-13.679-5.243-14.025-5.451l-1.214-0.727l0.283-1.387l14.956-73.5V92.123   c1.206-0.359,2.597-0.75,4.146-1.151c-0.696,0.473-1.413,0.997-2.146,1.571v19.134c0.745-1.094,1.479-2.086,2.198-2.991   l-13.163,64.693l7.677,4.76l-9.251,2.979l-2.457,12.076c0,0,15.012,9,43.332,9c6.499,0,12.288-0.477,17.364-1.207   c0.529-15.432,3.203-27.521,7.976-35.975c3.411-6.095,7.543-9.209,10.139-10.423l-1.86-9.143c-0.55-1.587-0.897-3.263-1.018-5.004   l-6.458-31.741c0.081,0.101,0.159,0.189,0.24,0.292c3.212,4.107,6.729,10.048,9.977,18.54c2.675-3.62,6.562-6.278,11.064-7.376   c-3.89-9.439-8.236-16.28-12.509-21.258c-1.797-2.104-3.575-3.838-5.289-5.297c3.726,1.983,7.218,4.501,10.404,7.718   c1.564,1.582,3.627,2.375,5.689,2.375c2.033,0,4.066-0.77,5.625-2.311c3.141-3.108,3.17-8.174,0.063-11.314   c-5.129-5.19-10.893-9.081-16.892-11.921l-5.473,7.157l-2.167-10.195c-2.781-0.908-5.577-1.608-8.365-2.166   c-4.33,5.555-11.044,9.003-18.489,9.003c-1.789,0-3.588-0.208-5.347-0.617c-5.265-1.227-9.84-4.163-13.128-8.358   c-10.197,1.702-17.987,4.227-21.194,5.351H68.912c0.941,2.612,1.36,7.586,1.451,12.282c0.853,0.213,1.682,0.533,2.455,0.964   c4.814,2.682,6.552,8.782,3.869,13.601l-19.499,35c-0.788,1.417-1.898,2.586-3.204,3.455v44.942l9.47-2.762l-9.47,9.882v37.172   l8.804-1.554l-2.667,5l-2.333,4l-3.804,1.791v10.348c0,6.83,5.537,12.363,12.363,12.363c6.828,0,12.365-5.533,12.365-12.363   v-90.271h4.635v90.271c0,6.83,5.537,12.363,12.363,12.363c6.828,0,12.365-5.533,12.365-12.363V200.36z"/><circle cx="81.029" cy="52.123" r="22.5"/><path d="M49.499,143.238c0.324-0.042,0.641-0.109,0.951-0.189c0.066-0.017,0.13-0.038,0.195-0.056   c0.252-0.072,0.499-0.155,0.74-0.251c0.069-0.027,0.138-0.053,0.206-0.082c0.035-0.015,0.071-0.027,0.105-0.042l-0.002-0.009   c1.531-0.679,2.867-1.833,3.745-3.411l19.501-35c2.149-3.859,0.763-8.731-3.097-10.881c-3.859-2.151-8.731-0.766-10.881,3.097   l-13.839,24.839l-0.635-2.967L59.218,95.44c1.303-2.343,3.478-4.025,5.989-4.746c-2.865-5.184-6.431-10.184-7.821-12.081   c-4.379,0.585-7.971,2.129-10.559,3.641c-3.287,1.929-5.127,3.814-5.495,4.193c-1.476,1.546-2.276,3.632-2.209,5.769l1.332,43.334   c0.002,0.07,0.013,0.138,0.017,0.207c0.008,0.136,0.018,0.27,0.032,0.405c0.015,0.138,0.034,0.274,0.056,0.41   c0.018,0.11,0.037,0.22,0.06,0.33c0.031,0.154,0.066,0.306,0.106,0.456c0.024,0.091,0.05,0.181,0.077,0.271   c0.048,0.159,0.101,0.315,0.158,0.469c0.032,0.086,0.065,0.17,0.1,0.254c0.062,0.149,0.127,0.296,0.197,0.44   c0.044,0.091,0.09,0.181,0.138,0.27c0.069,0.129,0.141,0.257,0.217,0.382c0.062,0.101,0.125,0.2,0.19,0.299   c0.072,0.107,0.146,0.213,0.223,0.317c0.079,0.107,0.16,0.211,0.244,0.314c0.076,0.092,0.153,0.182,0.233,0.27   c0.092,0.103,0.186,0.203,0.283,0.302c0.086,0.086,0.176,0.169,0.266,0.252c0.096,0.088,0.192,0.175,0.294,0.259   c0.11,0.092,0.225,0.178,0.34,0.264c0.088,0.065,0.174,0.13,0.264,0.192c0.15,0.102,0.306,0.196,0.462,0.288   c0.051,0.03,0.097,0.064,0.148,0.093c0.014,0.008,0.028,0.012,0.042,0.02c0.283,0.156,0.574,0.296,0.876,0.417   c0.038,0.015,0.077,0.026,0.115,0.041c0.246,0.095,0.498,0.176,0.756,0.247c0.091,0.025,0.181,0.047,0.272,0.068   c0.211,0.049,0.424,0.089,0.641,0.122c0.096,0.015,0.191,0.032,0.287,0.043c0.268,0.03,0.539,0.048,0.813,0.051   c0.028,0.001,0.057,0.005,0.085,0.005c0.006,0,0.013-0.001,0.019-0.001c0.077,0,0.154-0.001,0.232-0.003   c0.254-0.008,0.503-0.03,0.75-0.061C49.465,143.24,49.481,143.24,49.499,143.238z"/><path d="M116.746,202.325v6.072v46.24c0,5.524,4.477,10,10,10c5.521,0,10-4.476,10-10v-44.46v-6.002   C129.065,204.082,122.391,203.346,116.746,202.325z"/><path d="M156.288,232.139l-7.334-0.666l11.126-6.615v-0.802v-6.313c-2.525-1.15-4.285-3.651-4.36-6.629   c-0.033-1.502-0.047-2.945-0.047-4.344c0-1.27,0.017-2.517,0.044-3.746c-4.634,0.648-9.851,1.08-15.637,1.151v6.002v44.46   c0,5.524,4.475,10,10,10c5.519,0,10-4.476,10-10v-16.056l-0.126,0.224L156.288,232.139z"/><ellipse transform="matrix(0.2268 -0.9739 0.9739 0.2268 50.099 179.9966)" cx="138.414" cy="58.445" rx="21.496" ry="21.495"/><path d="M170.946,197.616v-0.129c-0.003,0.043-0.005,0.088-0.007,0.131C170.941,197.617,170.944,197.616,170.946,197.616z"/><path d="M163.354,216.426c3.037-0.074,5.439-2.6,5.365-5.635c-0.035-1.375-0.051-2.713-0.051-4.021   c-0.004-15.102,2.02-24.738,4.277-30.744v23.971l3.842-1.023l4-4v6.332l-7.842,5.556v49.724c0,4.418,3.582,8,8,8   s8.001-3.582,8.001-8V222.76h3v33.824c0,4.418,3.583,8,8.001,8c4.418,0,8-3.582,8-8v-17.992l-3.827-4.953l3.827,0.191v-57.807   c2.254,6.002,4.275,15.654,4.271,30.746c0,1.303-0.016,2.648-0.045,4.037c-0.068,3.035,2.342,5.551,5.377,5.619   c0.041,0,0.082,0,0.123,0c2.984,0,5.432-2.383,5.498-5.379c0.031-1.465,0.047-2.889,0.047-4.277   c-0.006-21.033-3.637-33.363-7.82-40.774c-0.54-0.965-1.093-1.838-1.647-2.634l-4.631,1.611l1.063-5.742   c-2.337-2.153-4.29-3.003-4.955-3.196c-0.242-0.08-0.488-0.136-0.732-0.182c-0.49-0.16-1.006-0.269-1.549-0.269h-2.157   c-3.003,1.89-6.543,3.001-10.346,3.001c-3.802,0-7.342-1.111-10.345-3.001h-2.154c-0.547,0-1.063,0.109-1.555,0.272   c-0.244,0.045-0.486,0.1-0.727,0.18h-0.002c-1.135,0.327-6.016,2.539-10.17,9.958c-4.186,7.412-7.816,19.74-7.822,40.775   c0,1.383,0.014,2.813,0.049,4.293c0.074,2.99,2.521,5.365,5.498,5.365C163.263,216.428,163.31,216.426,163.354,216.426z"/><circle cx="190.447" cy="139.085" r="17.5"/><path d="M434.3,160.048l-4.931-10.411l-66.563-1.902l-55.007,1.814l-39-4.5l-17.922,4.589l-2.078,11.911l-4,17.999l6.078,16.588   h14.255v42.504h-5.679v2.334h25.667v-2.334h-6.654v-41.347l21.833,2.755l53.5-3.912l40.5,4.412l4.166-1.114v39.206h-5.691v2.334   h25.667v-2.334H411.8v-42.504h17.569l4.931-15.588V160.048z M428.3,179.624l-3.326,10.51h-14.173h-0.79l-0.762,0.203l-15.421,4.127   l-39.379-4.293l-0.544-0.061l-0.545,0.041l-52.898,3.869l-30.41-3.84l-0.373-0.047h-0.378h-14.232l-4.028-11l3.616-16.284   l0.03-0.135l0.022-0.137l1.412-8.09l13.093-3.352l37.899,4.372l0.44,0.052l0.444-0.015l54.835-1.808l62.688,1.792l2.779,5.864   V179.624z"/><circle cx="263.799" cy="158.382" r="2.167"/><circle cx="259.465" cy="185.047" r="2.166"/><circle cx="420.8" cy="162.048" r="2.166"/><circle cx="418.8" cy="183.381" r="2.166"/></g><text x="0" y="279.807" fill="#000000" font-size="5px" font-weight="bold" font-family="'Helvetica Neue', Helvetica, Arial-Unicode, Arial, Sans-serif">Created by Gan Khoon Lay</text><text x="0" y="284.807" fill="#000000" font-size="5px" font-weight="bold" font-family="'Helvetica Neue', Helvetica, Arial-Unicode, Arial, Sans-serif">from the Noun Project</text></svg>